<svg id="图层_1" data-name="图层 1" xmlns="http://www.w3.org/2000/svg" viewBox="0 0 240.92 93.08"><path d="M33.41,62.08H43.69a4,4,0,0,1,4,4v3.09a1.15,1.15,0,0,0,1.16,1.15h1A1.14,1.14,0,0,0,51,69.18V66.09a4,4,0,0,1,4-4h.84A1.16,1.16,0,0,0,57,60.92V60a1.16,1.16,0,0,0-1.16-1.16H55a4,4,0,0,1-4-4V53.46a1.15,1.15,0,0,0-1.15-1.16h-1a1.16,1.16,0,0,0-1.16,1.16v1.33a4,4,0,0,1-4,4H33.41A1.16,1.16,0,0,0,32.25,60v1A1.16,1.16,0,0,0,33.41,62.08Z" transform="translate(-28.62 -51.07)"/><path d="M65.3,61.94h1a4,4,0,0,1,4,4v3.22a1.15,1.15,0,0,0,1.16,1.15h1a1.14,1.14,0,0,0,1.15-1.15V66a4,4,0,0,1,4-4H85.9a1.16,1.16,0,0,0,1.16-1.16v-1a1.16,1.16,0,0,0-1.16-1.16H77.61a4,4,0,0,1-4-4v-1.2a1.15,1.15,0,0,0-1.15-1.16h-1a1.16,1.16,0,0,0-1.16,1.16v1.2a4,4,0,0,1-4,4h-1a1.16,1.16,0,0,0-1.16,1.16v1A1.16,1.16,0,0,0,65.3,61.94Z" transform="translate(-28.62 -51.07)"/><path d="M89.92,87.34c-23.1-7.15-28.92-20.6-29-20.73a1.63,1.63,0,0,0-3,0h0a37.24,37.24,0,0,1-7.59,10.6,56.79,56.79,0,0,1-21,13.28,1.16,1.16,0,0,0-.69,1.47l.32.9a1.17,1.17,0,0,0,1.49.7c15.67-5.85,23.9-15.13,27.72-20.83.61-.93.79.28,1.46,1.17,3.83,5,12,12.86,28.13,17.84.62.19,2.44-1.42,2.62-2l.27-.91A1.17,1.17,0,0,0,89.92,87.34Z" transform="translate(-28.62 -51.07)"/><path d="M76.76,92.5v-1a1.16,1.16,0,0,0-1.16-1.16H67.18a5.87,5.87,0,0,1-5.87-5.87V82.59a1,1,0,0,0-1-1H57.79a1,1,0,0,0-1,1v1.93a5.87,5.87,0,0,1-5.87,5.87H42.56a1.16,1.16,0,0,0-1.16,1.16v1a1.15,1.15,0,0,0,1.16,1.15h8.35a5.87,5.87,0,0,1,5.87,5.87V142a.9.9,0,0,0,.9.91h2.73a.9.9,0,0,0,.9-.91V99.52a5.87,5.87,0,0,1,5.87-5.87H75.6A1.15,1.15,0,0,0,76.76,92.5Z" transform="translate(-28.62 -51.07)"/><path d="M48.78,103.26a.91.91,0,0,0-1.14.54c-2.63,6.5-7.74,18.14-12.39,23a2.57,2.57,0,0,0-.22,3.34l0,0a2.92,2.92,0,0,0,2.31,1.15h0a2.87,2.87,0,0,0,2.3-1.13c4.77-6.14,8.15-18.82,9.74-25.84A.91.91,0,0,0,48.78,103.26Z" transform="translate(-28.62 -51.07)"/><path d="M69.77,103.86a.94.94,0,0,0-1.79.57c1.59,6.9,5,19.4,9.65,25.62a3.06,3.06,0,0,0,2.44,1.22h0a3.11,3.11,0,0,0,2.5-1.24,2.3,2.3,0,0,0-.21-3C77.68,122.25,72.46,110.46,69.77,103.86Z" transform="translate(-28.62 -51.07)"/><path d="M269.25,77.17c-3.88-4.45-2.32-11.28-2.25-11.45a1.64,1.64,0,0,0-1.51-2.27H250.08a3.17,3.17,0,0,1-3-4.27l2.18-3.1a1.16,1.16,0,0,0-.68-1.49l-.89-.33a1.15,1.15,0,0,0-1.49.68l-2.53,4a2.64,2.64,0,0,1-2.46,1.71h-3.85V52.23a1.16,1.16,0,0,0-1.16-1.16h-.95a1.15,1.15,0,0,0-1.15,1.16v8.46H231.5a2.64,2.64,0,0,1-2.42-1.59l-2.64-3.43a1.15,1.15,0,0,0-1.51-.61l-.88.37a1.16,1.16,0,0,0-.61,1.52L225.51,59a3.17,3.17,0,0,1-2.92,4.41H207.48a1.64,1.64,0,0,0-1.6,2h0c0,.07,1.25,8.78-2.1,11.7a1.17,1.17,0,0,0-.27,1.5l.5.83a1.13,1.13,0,0,0,1.69.33A9.83,9.83,0,0,0,209,74.25c.64-2.78-.45-7.53,5.9-7.53H258c4.89,0,3.65,4.82,4.36,7.44a13.76,13.76,0,0,0,3.06,5.48,1.16,1.16,0,0,0,1.7,0l2.12-.94A1.16,1.16,0,0,0,269.25,77.17Z" transform="translate(-28.62 -51.07)"/><path d="M248.39,94.88h8.25a1.16,1.16,0,0,0,1.16-1.15v-1a1.16,1.16,0,0,0-1.16-1.15H237.93a.13.13,0,0,1-.13-.13V87.82a2.75,2.75,0,0,1,2.75-2.75h6.58a5.71,5.71,0,0,1,2.85.76l1.33.76a1.33,1.33,0,0,0,2-1.15V73a1.34,1.34,0,0,0-1.61-1.31l-2.19.47a5.94,5.94,0,0,1-1.19.13H224.44a5.75,5.75,0,0,1-2.41-.53l-.14-.07A1.33,1.33,0,0,0,220,72.85V85.6a1.33,1.33,0,0,0,2.26,1,5.52,5.52,0,0,1,3.85-1.49h5.68a2.75,2.75,0,0,1,2.74,2.75v3.67a.13.13,0,0,1-.13.13H213.74a1.16,1.16,0,0,0-1.15,1.15v1a1.16,1.16,0,0,0,1.15,1.15h11.18a2.39,2.39,0,0,1,2.37,2c3,17.76-16.64,40.39-16.58,43.25a2,2,0,0,0,.85,1.76c1.53.92,2.94.23,4.15-1.07a18,18,0,0,0,2-2.91C229.18,117.46,230,107.33,230.61,99c.11-1.35.51-4.14.51-4.14h1.51a1.91,1.91,0,0,1,1.9,1.91l-.17,46.51a.85.85,0,0,0,.85.86h2.45a.85.85,0,0,0,.85-.86l-.71-46.51a1.91,1.91,0,0,1,1.91-1.91h2a96.65,96.65,0,0,0,2.51,15.32c1.89,7.42,10.79,23.61,14.1,29.51a2.9,2.9,0,0,0,3.6,1.26h0a2.29,2.29,0,0,0,1.23-3.08c-3.46-7.32-21.1-27-17.13-41.26A2.59,2.59,0,0,1,248.39,94.88Zm-22-13.07a3.15,3.15,0,0,1-3.1-3.74,3.24,3.24,0,0,1,3.25-2.57h19.57a3.37,3.37,0,0,1,3.2,2.16,3.29,3.29,0,0,1-3.13,4.4Z" transform="translate(-28.62 -51.07)"/><path d="M177.47,80.62a1.64,1.64,0,0,0-1.6-1.29H152.43A2.08,2.08,0,0,1,151,75.77a8.24,8.24,0,0,1,3.34-1.94,18.45,18.45,0,0,0,9.5-5.51,17.53,17.53,0,0,0,4-12.85A1.64,1.64,0,0,0,166.21,54H126.55a1.38,1.38,0,0,0-1.37,1.38l-.41,1.73a1.37,1.37,0,0,0,1.38,1.37h35a3,3,0,0,1,2.94,3.8c-.47,1.66-1.16,2.34-2.72,3.84-2.45,2.35-4.68,4-12.18,5.23a14.19,14.19,0,0,0-1.7.47,1.77,1.77,0,0,1-1.84-.42l-1.92-1.92a1.5,1.5,0,0,0-2.11,0l-2.84,2.84a1.49,1.49,0,0,0,0,2.12l2.43,2.44a1.28,1.28,0,0,1-.87,2.19c-6.74.14-22.65.22-22.65.22a1.16,1.16,0,0,0-1.16,1.16v1a1.15,1.15,0,0,0,1.16,1.15h21a5.83,5.83,0,0,1,5.83,5.83v37.41a14.75,14.75,0,0,1-1.85,7.14l-2.68,4.82a.84.84,0,0,0,.15,1.17l2.42,2a.84.84,0,0,0,1.19-.17l.25-.34a28.1,28.1,0,0,0,5.4-16.57V88.42a5.83,5.83,0,0,1,5.82-5.83H171a2.65,2.65,0,0,1,2.38,3.81c-1.27,2.56-4.11,5.49-10.36,7.35a1.17,1.17,0,0,0-.81,1.4l.21.8a1.19,1.19,0,0,0,1.47,1C179.73,92.23,177.49,80.74,177.47,80.62Z" transform="translate(-28.62 -51.07)"/></svg>