<svg xmlns="http://www.w3.org/2000/svg"><defs><font horiz-adv-x="1024"><font-face ascent="960" bbox="-3.63064 -66.0327 1030.76 962.035" descent="-64" panose-1="2 0 5 3 0 0 0 0 0 0" underline-position="0" underline-thickness="0" unicode-range="U+0020-E620" units-per-em="1024"/><missing-glyph/><glyph glyph-name="space" horiz-adv-x="512" unicode="&#x20;"/><glyph d="M960.032 157.312l-278.497 132.064c37.1523 18.624 182.256 24.5283 194.256 57.2803 0 0-57.3438 88.0156-71.3438 202.336-5.44043 44.3682-14.752 102.592-24 184.592-15.0078 133.008-126.88 226.416-268.191 226.416h-.255859-.255859c-141.312 0-253.184-93.4082-268.176-226.4-9.24805-82-18.5605-140.224-24.001-184.592-14-114.336-71.3438-202.336-71.3438-202.336 12-32.752 157.088-38.6562 194.256-57.2803l-278.512-132.08s-63.9678-22.4639-63.9678-75.4717v-84.5283c0-35.376 28.624-61.3115 63.9678-61.3115h896.064c35.3438 0 63.9678 25.9355 63.9678 61.3115v84.5283c0 53.0078-63.9678 75.4717-63.9675 75.4717zM63.999 0v81.8398c0 3.4082 12.0957 11.6006 21.9355 15.3447 2.12793.751953 3.44043 1.34375 5.44043 2.31934l278.496 132.064c22.1279 10.4639 36.3203 32.6875 36.5928 57.1514.255859 24.4639-13.4404 46.9756-35.3125 57.9355-21.6797 10.8799-50.3359 16.2559-95.248 24.0322-10.6562 1.87207-25.2158 4.49609-39.3438 7.3125 18.3203 41.1045 38.5605 98.5928 46.5283 163.633 1.96777 16.1924 4.49609 34.416 7.3125 54.5918 4.84766 34.3359 10.8477 77.8721 16.752 130.224 11.168 98.8643 95.2803 169.553 204.592 169.553h.255859.255859c109.312 0 193.439-70.6885 204.592-169.568 5.9043-52.3359 11.9043-95.8877 16.752-130.224 2.81641-20.1758 5.34473-38.3994 7.3125-54.5918 7.96777-65.0244 28.2236-122.513 46.5273-163.633-14.1279-2.81641-28.6875-5.44043-39.3438-7.3125-44.9121-7.77637-73.5684-13.1523-95.248-24.0322-21.8721-10.9756-35.5684-33.4717-35.3125-57.9355.288086-24.4639 14.4639-46.6875 36.5918-57.1514l278.496-132.064c2-.975586 3.31152-1.56738 5.43945-2.31934 9.83984-3.74414 20.4961-11.9365 21.9365-15.3447l.0322266-81.8242h-896.032z" glyph-name="user-female" unicode="&#xe000;"/><glyph d="M746 124.72l-201.471 111.602c74.8799 58.9121 95.2158 174.688 95.2158 239.601v135.12c0 89.4717-118.88 189.12-238.288 189.12-119.376 0-241.408-99.6641-241.408-189.12v-135.12c0-59.0244 24.9756-178.433 100.624-239.089l-206.672-112.112s-54-24.0645-54-54.0645v-81.0879c0-29.8398 24.2236-54.0635 54-54.0635h692c29.8076 0 54.0312 24.2236 54.0312 54.0635v81.0879c0 31.8076-54.0322 54.0635-54.0322 54.0635zM736.033-.495117h-672.031v57.2158c4.5918 3.34375 11.0078 7.21582 16.0635 9.53613 1.50391.688477 3.00781 1.4082 4.43164 2.22461l206.688 112.096c18.8477 10.2236 31.3438 29.1836 33.248 50.5273s-7.00781 42.2559-23.7119 55.6641c-53.6641 43.0244-76.6562 138.32-76.6562 189.152v135.12c0 45.9678 86.6562 125.12 177.408 125.12 92.4316 0 174.288-78.0645 174.288-125.12v-135.12c0-50.1279-15.5684-145.84-70.7842-189.28-16.9121-13.3115-26-34.2236-24.2236-55.6641 1.80762-21.4404 14.2559-40.5283 33.1201-50.8486l201.472-111.6c1.77637-.975586 4.03223-2.03125 5.9043-2.84766 4.71973-2 10.5273-5.34375 14.7832-8.28809v-57.8877zM969.97 284.064l-204.465 111.601c74.8799 58.9121 98.2236 174.688 98.2236 239.601v135.12c0 89.4717-121.872 190.128-241.28 190.128-77.5996 0-156.943-42.1924-203.119-96.2246 26.3359-1.63184 55.376-1.66406 80.4639-9.66406 33.7119 26.2559 76.3682 41.8721 122.656 41.8721 92.4316 0 177.279-79.0557 177.279-126.128v-135.12c0-50.1279-18.5596-145.84-73.7754-189.28-16.9121-13.3115-26-34.2236-24.2236-55.6641 1.80762-21.4404 14.2559-40.5283 33.1201-50.8486l204.464-111.6c1.77637-.975586 4.03223-2.03125 5.9043-2.84766 4.71973-2 10.5273-5.34375 14.7832-8.28809v-56.9121h-129.184c19.5039-14.7197 25.4082-35.7754 32.9766-63.999h106.192c29.8076 0 54.0312 24.2236 54.0312 54.0635v80.0957c-.015625 31.8398-54.0479 54.0957-54.0479 54.0957z" glyph-name="people" unicode="&#xe001;"/><glyph d="M64.0645 65.3115c0 25.4404 19.0908 33.4053 26.7227 36.9414l281.04 132.624c20.1436 9.24805 34.0479 28.3203 36.752 50.3203 2.71973 22-6.16016 43.8398-23.4561 57.7119-66.4805 53.376-97.4561 170.688-97.4561 233.185v159.904c0 66.8643 116.4 159.856 224.128 159.856 108.672 0 223.92-91.5361 223.92-159.856v-159.92c0-61.5518-25.5996-179.312-94.2559-233.359-17.5039-13.7764-26.5918-35.6807-23.9678-57.8086 2.62402-22.1602 16.5918-41.3125 36.8477-50.624l95.9199-45.5039 15.8076 63.8721-85.0078 39.7764c88.6562 69.7764 118.656 206.832 118.656 283.648v159.92c0 105.92-146.624 223.855-287.92 223.855-141.312 0-288.129-117.936-288.129-223.855v-159.92c0-69.8721 31.8877-211.248 121.392-283.088l-281.04-132.624s-63.9521-28.4961-63.9521-63.9678v-96.0322c0-35.3438 28.6396-63.9678 63.9512-63.9678h703.92v64l-703.872-.0322266v64.9443zM991.939 128.125h-96v96c0 17.6797-14.3359 32-32 32s-32-14.3203-32-32v-96h-96c-17.6641 0-32-14.3203-32-32 0-17.6641 14.3359-32 32-32h96v-96c0-17.6641 14.3359-32 32-32s32 14.3359 32 32v96h96c17.6641 0 32 14.3359 32 32 0 17.6797-14.3203 32-32 32z" glyph-name="user-follow" unicode="&#xe002;"/><glyph d="M63.5039.240234l.00195312 64.9414c0 25.4404 19.1035 33.4248 26.7197 36.9443l281.04 132.624c20.1436 9.24805 34.0479 28.3203 36.752 50.3203 2.71973 22-6.16016 43.8398-23.4561 57.7119-66.4805 53.376-97.4561 170.704-97.4561 233.185v159.92c0 66.8643 116.4 159.856 224.128 159.856 108.672 0 223.936-91.5361 223.936-159.856v-159.92c0-61.5518-25.5996-179.312-94.2559-233.376-17.5039-13.7764-26.5918-35.6807-23.9678-57.8086 2.62402-22.1602 16.5918-41.3125 36.8477-50.624l162.24-77.248 38.1436 54.0645-173.664 81.3438c88.6562 69.7764 118.656 206.849 118.656 283.665v159.92c0 105.92-146.624 223.855-287.936 223.855s-288.128-117.936-288.128-223.855v-159.92c0-69.8721 31.8877-211.248 121.392-283.088l-281.04-132.656s-63.9521-28.4961-63.9521-63.9678v-96.0322c0-35.3438 28.6396-63.9678 63.9512-63.9678h639.712l-52 63.9844zM1012.21 236.493c-13.9043 10.9121-34.0322 8.43164-44.9121-5.47266l-136.848-208.704-85.0557 85.0723c-12.4961 12.4961-32.7686 12.4961-45.2646 0s-12.4961-32.752 0-45.248l113.136-113.136c12.4961-12.4961 32.752-12.4961 45.248 0 3.04004 3.02441 5.3125 6.54395 6.88086 10.2881l152.304 232.304c10.8799 13.9043 8.43164 34.0166-5.48828 44.8965z" glyph-name="user-following" unicode="&#xe003;"/><glyph d="M799.12 576.144l.00097656 159.92c0 105.92-146.608 223.855-287.904 223.855-141.312 0-288.128-117.936-288.128-223.855v-159.92c0-69.8721 31.8877-211.232 121.392-283.072l-281.04-132.64s-63.9521-28.4961-63.9521-63.9678v-96.0322c0-35.3438 28.6396-63.9678 63.9512-63.9678h607.936v64l-607.888-.0322266v64.9443c0 25.4404 19.1035 33.4248 26.7197 36.9443l281.04 132.624c20.1436 9.24805 34.0479 28.3359 36.752 50.3359 2.71973 22-6.16016 43.8242-23.4561 57.6963-66.4805 53.376-97.4561 170.688-97.4561 233.199v159.92c0 66.8643 116.4 159.856 224.128 159.856 108.688 0 223.904-91.5361 223.904-159.856v-159.92c0-61.5518-25.5996-179.328-94.2236-233.36-17.5361-13.7598-26.624-35.6641-23.9678-57.792 2.5918-22.1602 16.5596-41.3125 36.8477-50.624l18.1123-8.35156 28.0645 51.792-19.4883 14.7197c88.6562 69.7275 118.656 206.768 118.656 283.584zM924.625 81.1992l90.4961 90.5117c12.4961 12.4639 12.4961 32.752 0 45.248-12.4805 12.4805-32.7529 12.4805-45.2334 0l-90.5117-90.5283-90.4961 90.5283c-12.4961 12.4805-32.7686 12.4805-45.249 0-12.4961-12.4961-12.4961-32.7842 0-45.248l90.4961-90.5117-90.4961-90.4961c-12.4961-12.4805-12.4961-32.7686 0-45.2646 12.4805-12.4639 32.7529-12.4639 45.249 0l90.4961 90.5117 90.5117-90.5117c12.4805-12.4639 32.7529-12.4639 45.2334 0 12.4961 12.4961 12.4961 32.7842 0 45.2646z" glyph-name="user-unfollow" unicode="&#xe004;"/><glyph d="M511.728 896c108.672 0 223.92-91.5342 223.92-159.854v-159.92c0-61.5518-25.5996-179.312-94.2559-233.376-17.5039-13.7764-26.5918-35.6807-23.9678-57.8086 2.62402-22.1602 16.5918-41.3125 36.8477-50.625l278.496-132.064c2.17578-.992188 26.6875-5.10449 26.6875-39.3447l.0322266-62.4639-895.488-.0478516v64.9443c0 25.4404 19.0879 33.4248 26.7197 36.9443l281.024 132.624c20.1602 9.24805 34.0645 28.3203 36.7686 50.3203 2.71973 22-6.16016 43.8398-23.4561 57.7119-66.4805 53.376-97.4561 170.704-97.4561 233.185v159.92c.015625 66.8477 116.416 159.855 224.128 159.854zM511.728 960.002c-141.312 0-288.127-117.938-288.127-223.857v-159.92c0-69.8721 31.8877-211.248 121.392-283.088l-281.04-132.64s-63.9521-28.4961-63.9521-63.9678v-96.0322c0-35.3438 28.6396-63.9678 63.9512-63.9678h895.552c35.3438 0 63.9678 28.624 63.9678 63.9678v96.0322c0 37.5996-63.9678 63.9678-63.9678 63.9678l-278.496 132.064c88.6562 69.7764 118.656 206.849 118.656 283.665v159.92c0 105.92-146.64 223.855-287.936 223.855v0z" glyph-name="user" unicode="&#xe005;"/><glyph d="M735.808 32.1279h-449.936c-17.6797 0-32-14.3203-32-32s14.3203-32 32-32h449.936c17.6797 0 32 14.3203 32 32s-14.3037 32-32 32zM1017.31 838.368c-3.02441 14.8799-16.1592 25.5684-31.3428 25.5684h-156.624v31.9355c0 17.6797-14.3203 32-32 32h-575.536c-17.6797 0-32-14.3203-32-32v-31.9355h-151.776c-15.1836 0-28.3193-10.6885-31.3438-25.5684-.944336-4.62402-22.4004-116.752 39.9033-193.152 35.8398-43.9199 90.6074-66.9277 162.495-68.9756 40.9922-121.152 144.064-210.864 268.192-224.24v-222.912h-95.7764c-17.6797 0-32-14.3203-32-32s14.3203-32 32-32h258.688c17.6797 0 32 14.3203 32 32s-14.3203 32-32 32h-98.9121v222.88c124.336 13.1201 227.632 102.8 268.736 224.08 74.3359 1.08789 130.736 24.2402 167.393 69.168 62.3037 76.416 40.8477 188.528 39.9038 193.152zM96.4014 685.44c-28.3359 34.4961-31.1846 85.4092-29.7441 114.497h123.152v-108.032c0-17.2959 1.59961-34.1602 3.93555-50.7686-43.6797 4.08008-76.4473 18.832-97.3438 44.3037zM765.345 691.905c0-153.088-114.721-277.663-255.713-277.663-141.056 0-255.808 124.56-255.808 277.663v171.968h511.536v-171.968h-.015zM927.6 685.442c-21.6797-26.4316-56.0322-41.4883-102.272-44.8643 2.38379 16.7842 4.01562 33.8398 4.01562 51.3281v108.032h128c1.44043-29.1201-1.40723-80-29.7436-114.496z" glyph-name="trophy" unicode="&#xe006;"/><glyph d="M511.984 923.872c-281.968 0-511.345-229.408-511.345-511.376 0-177.152 89.6797-339.185 239.903-433.408 14.9443-9.47168 34.6885-4.87988 44.0967 10.0957s4.87988 34.7197-10.0957 44.0957c-54.0957 33.9521-99.04 78.0479-133.424 128.88l33.5518 19.376c15.3115 8.84766 20.5596 28.3994 11.7119 43.7109-8.87988 15.3438-28.4639 20.5596-43.7119 11.7119l-33.5996-19.3916c-24.4004 50.5117-39.2969 105.792-43.2812 163.424h35.6162c17.6797 0 32 14.3203 32 32s-14.3203 32-32 32h-35.4561c4.24023 58.6875 19.7764 114.304 44.5605 164.592l32.1602-18.5596c5.02441-2.91211 10.5283-4.28809 15.9688-4.28809 11.0557 0 21.8076 5.74414 27.7432 16 8.84766 15.3125 3.59961 34.8809-11.7119 43.7129l-31.8398 18.3682c32.1123 46.832 72.8643 87.2959 119.984 119.023l18.0156-31.2002c5.93555-10.2881 16.6875-16 27.7432-16 5.44043 0 10.9443 1.37598 15.9688 4.28809 15.3115 8.84766 20.5596 28.3994 11.7119 43.7119l-17.9521 31.0723c49.3281 23.792 103.68 38.6562 160.976 42.8164v-39.8721c0-17.6797 14.3203-32 32-32s32 14.3203 32 32v40c58.5918-4.08008 114.128-19.3916 164.384-43.9512l-17.3604-30.0479c-8.84766-15.3115-3.59961-34.8799 11.7119-43.7119 5.02441-2.91211 10.5283-4.28809 15.9688-4.28809 11.0557 0 21.8076 5.71191 27.7432 16l17.2803 29.9355c46.6885-31.7764 87.0723-72.1445 118.88-118.816l-29.9678-17.3115c-15.3115-8.84766-20.5596-28.3994-11.7119-43.7109 5.93555-10.2881 16.6875-16 27.7432-16 5.44043 0 10.9443 1.37598 15.9688 4.28809l30.1279 17.3916c24.5918-50.2725 39.9521-105.824 44.0479-164.433h-35.1357c-17.6797 0-32-14.3203-32-32s14.3203-32 32-32h35.1201c-4.04785-56.8799-18.5918-111.439-42.4961-161.312l-31.6797 18.2881c-15.2803 8.84766-34.9121 3.56738-43.7119-11.7129-8.84766-15.3115-3.59961-34.8799 11.7119-43.7119l31.7764-18.3516c-35.1035-52.2402-81.4395-97.3926-137.359-131.824-15.0557-9.28027-19.7119-29.0078-10.4639-44.0322 6.06445-9.80762 16.5283-15.2158 27.2803-15.2158 5.71191 0 11.5361 1.53613 16.752 4.75195 152.464 93.9043 243.472 256.784 243.472 435.632 0 281.952-229.408 511.36-511.376 511.36zM748.111 512.272c15.2959 8.84766 20.5439 28.3984 11.7119 43.71-8.83203 15.2959-28.416 20.5439-43.7119 11.6963l-173.824-100.352c-9.28027 5.24805-19.8564 8.49609-31.2803 8.49609-35.2803 0-63.8398-28.5918-63.8398-63.8076 0-35.248 28.5762-63.8398 63.8398-63.8398 35.2803 0 63.8398 28.5918 63.8398 63.8398 0 .0644531-.015625.144531-.015625.208984z" glyph-name="speedometer" unicode="&#xe007;"/><glyph d="M940.736 770.304c-27.7441 19.9678-105.056 46.4961-429.008 46.4961-347.152 0-398.656-30.4639-415.185-40.4316-87.9678-52.8477-96.3193-286.815-97.0869-334.256 1.05566-62.6562 11.1836-271.12 97.0234-322.688 16.4961-9.93555 67.7119-40.2236 415.248-40.2236 324.16 0 401.376 26.4004 429.008 46.2881 74.9756 53.9355 83.5996 239.68 83.8076 317.439-.192383 62.5283-6.75195 271.872-83.8071 327.376zM903.36 177.424c-11.1523-8.03223-75.1855-34.2227-391.634-34.2227-305.936 0-370.128 23.7441-382.256 31.0557-30.8799 18.5283-63.4717 116.88-66.0312 268.032 2.52832 150.816 35.5684 260.912 66.0967 279.216 12.1602 7.34375 76.5918 31.2793 382.191 31.2793 316.192 0 380.4-26.3682 391.633-34.4326 27.4082-19.7441 56.752-123.68 57.1836-275.632-.431641-154.336-29.9678-245.712-57.1836-265.296zM720.415 473.17l-287.934 176.689c-9.9043 5.96777-22.2246 6.12793-32.2568.463867-10.0645-5.67969-16.2881-16.3359-16.2881-27.8721v-353.44c0-11.5361 6.22363-22.1924 16.2881-27.8721 4.87988-2.75195 10.3203-4.12793 15.7119-4.12793 5.71191 0 11.4717 1.53613 16.5273 4.5918l287.936 176.752c9.59961 5.80762 15.4717 16.1914 15.4717 27.4072s-5.85645 21.6318-15.4561 27.4083zM447.953 325.699v240.097l194-120.032z" glyph-name="social-youtube" unicode="&#xe008;"/><glyph d="M684.4 801.312c52.8799 0 100.621-21.6357 134.253-56.3721 41.8398 8.0957 81.2803 22.8477 116.721 43.2793-13.7119-41.6318-42.8799-76.5596-80.8154-98.6553 37.1201 4.36816 72.6562 13.9043 105.632 28.1602-24.7197-35.7441-55.8398-67.2158-91.7754-92.3682.335938-7.63184.52832-15.3438.52832-23.0234 0-235.728-185.008-507.615-523.312-507.615-103.84 0-200.56 29.6318-281.903 80.2236 14.3682-1.67969 29.0078-2.52734 43.8398-2.52734 86.1602 0 165.504 28.4961 228.464 76.4004-80.5283 1.37598-148.496 53.0078-171.808 123.84 11.2158-2.0957 22.752-3.21582 34.624-3.21582 16.7197 0 33.0078 2.16016 48.3994 6.25586-84.1279 16.3359-147.536 88.4482-147.536 174.929v2.28809c24.8164-13.376 53.1523-21.4082 83.3447-22.3359-49.376 32.0322-81.8398 86.5605-81.8398 148.465 0 32.7197 9.08789 63.376 24.9121 89.6318 90.6885-107.872 226.208-178.912 379.088-186.384-3.15234 13.0244-4.78418 26.7842-4.78418 40.624 0 98.5439 82.3516 178.4 183.967 178.4zM960.189 717.691h.160156-.160156zM684.397 865.308c-125.664 0-229.773-91.8086-245.806-210.433-102.816 20.6562-196.32 75.0879-263.504 154.944-12.1924 14.5117-30.1602 22.8154-48.9766 22.8154-1.66406 0-3.34375-.0644531-5.02344-.192383-20.5918-1.64844-39.1201-13.1201-49.7764-30.7842-22.3203-37.0244-34.0967-79.4404-34.0967-122.656 0-28.8477 5.18359-56.9434 15.0078-83.2158-10.4639-11.6318-16.4961-26.8477-16.4961-42.9121v-2.28809c0-62.6885 24.7842-120.864 65.9365-164.464-2.36816-10.9756-1.83984-22.4639 1.77637-33.4717 14.1924-43.1836 40.0322-80.3994 73.5361-108.751-22.4961-5.00781-45.7119-7.53613-69.4082-7.53613-12.5283 0-24.7207.688477-36.2568 2.09668-2.55957.320312-5.08789.432617-7.63184.432617-26.8799 0-51.2803-16.9443-60.3359-42.7842-9.93555-28.3203 1.08887-59.7119 26.5605-75.5684 94.5283-58.8164 203.712-89.8721 315.712-89.8721 364.032 0 583.008 284.976 587.264 563.344 29.792 24.6562 56.1279 53.1846 78.4482 85.1523 8.12793 10.6885 12.96 24.0322 12.96 38.4961 0 21.7764-10.8955 41.0244-27.4873 52.5928 7.18359 24.624-1.00879 51.2803-21.0088 67.5684-11.6797 9.50391-26 14.3359-40.4004 14.3359-11.0078 0-22.0322-2.81641-31.9678-8.56055-21.1523-12.1924-43.7764-21.8408-67.6006-28.7852-43.1045 32.4316-96.5449 50.4961-151.425 50.4967z" glyph-name="social-twitter" unicode="&#xe009;"/><glyph d="M528.016 896.256l-.00195312-223.871h224.32v-95.9678h-223.328l-.320312-278.528c0-51.7764 2.68848-85.0088 8.16016-99.7451 8.52832-23.248 39.5684-53.0078 97.1846-53.0078 44.6885 0 104.977 13.4404 150.16 47.248v-149.312c-37.6797-17.9678-72.7197-25.2158-103.248-32.4639-30.5596-7.21582-63.6631-10.8477-99.1514-10.8477-39.5361 0-153.664 1.08789-200.496 120.399-8.43164 21.4717-12.6553 52.6553-12.6553 93.4717v362.624h-128.848l.624023 98.1279c42.6562 0 170.624 25.9043 170.624 221.872zM528.014 960.257l-116.976.00195312c-35.3438 0-64-28.6562-64-64 0-146.496-81.6318-157.872-106.624-157.872-35.2158 0-63.8398-28.4639-64-63.6797l-.624023-98.1279c-.0957031-17.0244 6.62402-33.376 18.624-45.4717 12.0322-12.0645 28.3359-18.8486 45.376-18.8486h64.8477v-298.624c0-49.376 5.59961-87.6318 17.0879-116.88 28.8477-73.4404 97.376-161.009 260.064-161.009 40.2881 0 78.5918 4.22363 113.872 12.5596l7.05566 1.66406c29.8721 7.02441 68.0322 15.7764 109.008 35.3125 22.2881 10.624 36.4639 33.0879 36.4639 57.7764v149.312c0 24.2236-13.6797 46.3672-35.3438 57.2148-9.05566 4.55957-18.8799 6.7832-28.6562 6.7832-13.5684 0-27.0566-4.32031-38.3369-12.752-38.0957-28.5283-86.8477-34.4961-111.808-34.4961-25.5996 0-35.1191 9.28027-37.2148 11.7441-1.08789 5.02441-4.12793 23.7764-4.12793 77.0088l.223633 214.528h159.408c35.3438 0 64 28.6562 64 64v95.9678c0 35.3438-28.6562 64-64 64h-160.32v159.888c0 35.3438-28.6562 64-64 64v0z" glyph-name="social-tumblr" unicode="&#xe00a;"/><glyph d="M581.76 879.504c3.80762 0 5.99902-.15918 5.99902-.15918h83.5684l-.431641-96h-83.0078c-45.6797 0-44.624-39.0078-44.624-39.0078v-152.192h161.632l-22.5596-95.8721h-139.6v-479.776h-95.9043l-.0644531 479.776h-127.408l-.255859 95.8721h127.712v149.184c.015625 130.08 108.048 138.176 134.944 138.176zM671.327 879.345h.160156-.160156zM581.76 943.505c-23.0078 0-67.9697-3.80859-110.562-29.4727-40.3203-24.2559-88.3682-73.9355-88.3682-172.688v-85.1836h-63.7119c-17.0078 0-33.3115-6.78418-45.3438-18.8164-12-12.0645-18.7197-28.3682-18.6553-45.4082l.255859-95.8721c.12793-35.248 28.752-63.7764 64-63.7764h63.4082l.0644531-415.776c0-35.3438 28.6562-64 64-64h95.9043c35.3438 0 64 28.6562 64 64v415.776h75.5996c28.4004 0 53.4082 18.7197 61.4082 45.9678l22.5596 95.8721c5.67969 19.3438 1.90332 40.2559-10.1924 56.3682-12.0645 16.1602-31.0566 25.6641-51.2168 25.6641h-97.6318v63.1523l63.6318.0322266c35.2158 0 63.8398 28.4639 64 63.7119l.431641 92.752c.0644531 1.18359.0966797 2.33594.0966797 3.53613 0 35.3438-28.5918 64-63.9355 64h-81.9355c-1.83984.0957031-4.49609.160156-7.80713.160643z" glyph-name="social-facebook" unicode="&#xe00b;"/><glyph d="M1023.42 735.248c-.719727 10.2236-6.28711 19.4736-14.9756 24.9141l-285.184 177.968c-11.5996 7.21582-26.4316 6.31934-37.0557-2.28906l-174.224-140.944-174.192 140.944c-10.5918 8.55957-25.5361 9.53516-37.0557 2.28711l-285.184-177.968c-8.68848-5.44043-14.2568-14.6885-14.9766-24.9121-.751953-10.2236 3.47168-20.1592 11.3115-26.751l165.216-138.816-141.536-111.184c-8.0957-6.32031-12.624-16.1768-12.2236-26.417s5.68066-19.6641 14.2246-25.3604l130.976-87.3115c-6.43164-5.83984-10.5439-14.208-10.5439-23.5996v-128.336c0-11.1201 5.77637-21.4404 15.248-27.2803l321.968-182.432c5.12012-3.15234 10.9443-4.7207 16.752-4.7207s11.6318 1.59961 16.7842 4.75195l318.224 182.432c9.47168 5.83984 15.2158 16.1602 15.2158 27.248v150.528c0 2.06445-.240234 4.08008-.608398 6.03223l124.048 82.6885c8.52832 5.67969 13.8086 15.0879 14.2246 25.3281.400391 10.2559-4.0957 20.0801-12.1602 26.416l-140.912 111.152 165.312 138.88c7.85645 6.5918 12.0801 16.5273 11.3281 26.751zM736.673 569.346l-224.688-140.784-224.688 140.784 224.688 146.224zM86.8008 729.153l228.464 142.592 142.368-115.184-227.344-147.968zM229.921 529.777l225.969-141.6-128.064-98.0322-218 145.312zM222.018 283.777l89.3438-59.5674c11.3438-7.56836 26.3193-7.05664 37.1836 1.21582l129.408 99.04v-282.8l-255.936 143.68v98.4316zM798.209 185.346l-256.256-145.681v287.776l132.656-101.968c5.71191-4.40039 12.624-6.62402 19.5039-6.62402 6.19238 0 12.3682 1.77637 17.7441 5.37598l86.3359 57.5684v-96.4482h.015625zM913.457 435.521l-218.031-145.327-127.44 97.9355 226 141.632zM793.666 608.595l-227.345 147.968 142.4 115.184 228.464-142.592z" glyph-name="social-dropbox" unicode="&#xe00c;"/><glyph d="M511.984 959.728c-69.8564 0-136.464-14.1113-197.184-39.5674-2.1123-.671875-4.17676-1.55176-6.14453-2.67188-181.264-78.8164-308.384-259.553-308.384-469.505 0-282.16 229.568-511.712 511.712-511.712 282.192 0 511.744 229.568 511.744 511.712 0 282.192-229.552 511.744-511.744 511.744zM959.729 447.984c0-3.58398-.192383-7.11914-.272461-10.6709-49.0244 13.0078-173.393 37.4395-326.801 3.74316-13.5195 30.8955-28.5117 62.5752-45.2793 94.8154-1.4082 2.7041-2.78418 5.28027-4.17578 7.95215 164.128 63.3438 233.888 148.672 262.768 201.952 70.6885-79.2158 113.761-183.552 113.761-297.792zM797.537 792.562c-14.9121-35.2002-69.0391-126-244.719-191.888-78.8965 144.224-140.225 230.672-174.593 274.64 42.2559 13.2637 87.1836 20.416 133.76 20.416 108.432 0 207.983-38.7676 285.552-103.168zM316.05 850.481c27.2158-33.2803 90.3838-117.056 175.104-270.447-200-60.2881-362.448-53.04-418.832-47.792 26.8164 140.144 119.072 257.312 243.729 318.239h-.001zM64.2734 447.986c0 6.89648.209961 13.7451.530273 20.5771 19.248-1.93555 49.1523-4.0791 88.2881-4.0791 86.8955 0 217.712 10.752 369.008 58.1436 2.84766-5.37598 5.66406-10.7363 8.54395-16.2725 14.4316-27.7764 27.4873-55.1846 39.4072-82.0645-27.376-8.6084-55.3916-19.0723-83.8721-31.9688-182.624-82.7041-268.192-200.704-298.673-252.336-76.2725 80.3203-123.232 188.752-123.232 308zM236.1 95.7637c16.2402 30.752 90.6074 154.082 276.447 238.258 27.9678 12.6719 55.5195 22.7842 82.3838 30.9121 60.7363-154.32 81.8086-281.568 88.1768-330.593-52.752-21.9043-110.528-34.0645-171.12-34.0645-104.016 0-199.792 35.7598-275.888 95.4873zM743.618 64.9658c-9.23242 61.5996-32.1445 177.392-85.9688 315.664 148.448 29.5518 265.952.55957 295.616-8.08008-22.2236-130.208-100.735-241.488-209.647-307.584z" glyph-name="social-dribbble" unicode="&#xe00d;"/><glyph d="M907.952 815.52c-11.8721 11.0879-27.5029 17.2168-43.6631 17.2168-1.47168 0-2.94336-.0644531-4.39941-.160156-.912109-.0644531-11.1846-.688477-27.2803-.688477-26.6562 0-78.6885 1.80762-127.969 13.9355-63.6641 15.6318-137.12 88.1602-158.496 102.464-10.752 7.18359-23.1523 10.7832-35.5684 10.7832-12.3682 0-24.7842-3.59961-35.5361-10.752-2.5918-1.74414-79.5039-84.0322-154.752-102.496-49.248-12.1279-102.288-13.9355-128.912-13.9355-16.0957 0-26.3682.624023-27.376.688477-1.4082.0957031-2.81641.160156-4.22461.160156-16.1924 0-31.8721-6.16016-43.7764-17.2803-12.9443-12.0957-20.3203-29.0078-20.3203-46.7197v-160.032c0-591.632 387.12-667.808 403.568-670.783 3.74414-.65625 7.53613-1.00781 11.3125-1.00781 3.77637 0 7.60059.335938 11.3125 1.00781 16.4316 2.97559 406.399 79.1514 406.399 670.783v160.032c.0322266 17.7441-7.34375 34.6885-20.3193 46.7842zM864.305 608.704c0-544.912-353.714-607.777-353.714-607.777s-350.88 62.8799-350.88 607.776v160.032s12.0957-.847656 31.6797-.847656c33.5684 0 90.0322 2.46387 144.16 15.7754 88.624 21.7441 175.024 111.408 175.024 111.408s90.2559-89.6641 178.784-111.408c54.1924-13.3115 109.681-15.7754 143.249-15.7754 19.5684 0 31.6807.847656 31.6807.847656s.015625-20.3516.015625-160.031h.000975zM647.599 613.759c-12.4961 12.4961-32.7686 12.4961-45.249 0l-90.5117-90.5117-90.5117 90.5117c-12.4961 12.4961-32.7686 12.4961-45.2646 0s-12.4961-32.7686 0-45.249l90.5117-90.5117-90.5117-90.5117c-12.4961-12.4805-12.4961-32.7529 0-45.249s32.7686-12.4961 45.2646 0l90.5117 90.5117 90.5117-90.5117c12.4805-12.4961 32.7529-12.4961 45.249 0s12.4961 32.7686 0 45.249l-90.5117 90.5117 90.5117 90.5117c12.4961 12.4805 12.4961 32.7529 0 45.249z" glyph-name="shield" unicode="&#xe00e;"/><glyph d="M832.144 960h-640.288c-53.0244 0-96-42.9756-96-96v-832c0-53.0244 42.9756-96 96-96h640.288c53.0244 0 96 42.9756 96 96v832c0 53.0244-42.9756 96-96 96zM864.144 32c0-17.6641-14.3359-32-32-32h-640.288c-17.6641 0-32 14.3359-32 32v832c0 17.6641 14.3359 32 32 32h640.288c17.6641 0 32-14.3359 32-32v-832zM512.048 159.824c-35.2803 0-63.8398-28.5918-63.8398-63.8242s28.5596-63.8408 63.8398-63.8408c35.2637 0 63.8398 28.6084 63.8398 63.8408 0 35.2324-28.5762 63.8242-63.8398 63.8242zM576.048 864h-128c-17.6641 0-32-14.3359-32-32s14.3359-32 32-32h128c17.6641 0 32 14.3359 32 32s-14.3359 32-32 32z" glyph-name="screen-tablet" unicode="&#xe00f;"/><glyph d="M704.144 960h-384.288c-53.0244 0-96-42.9756-96-96v-832c0-53.0244 42.9756-96 96-96h384.288c53.0244 0 96 42.9756 96 96v832c0 53.0244-42.9756 96-96 96zM736.144 32c0-17.6641-14.3359-32-32-32h-384.288c-17.6641 0-32 14.3359-32 32v832c0 17.6641 14.3359 32 32 32h384.288c17.6641 0 32-14.3359 32-32v-832zM512.048 159.824c-35.2803 0-63.8398-28.5918-63.8398-63.8242s28.5762-63.8408 63.8398-63.8408c35.2803 0 63.8398 28.6084 63.8398 63.8408 0 35.2324-28.5596 63.8242-63.8398 63.8242zM576.048 864h-128c-17.6641 0-32-14.3359-32-32s14.3359-32 32-32h128c17.6641 0 32 14.3359 32 32s-14.3359 32-32 32z" glyph-name="screen-smartphone" unicode="&#xe010;"/><glyph d="M960 864.192h-896c-35.1836 0-64-28.7998-64-64v-544.192c0-35.1836 28.8164-63.9834 64-63.9834h416v-96.208h-160c-17.6641 0-32-14.3359-32-32s14.3359-32 32-32h384c17.6641 0 32 14.3359 32 32 0 17.6641-14.3359 32-32 32h-160v96.208h416c35.1836 0 64 28.7998 64 63.9834v544.192c0 35.2002-28.8164 64-64 64zM960 256h-896v544.192h896v-544.192z" glyph-name="screen-desktop" unicode="&#xe011;"/><glyph d="M934.32 894.096c10.4316 0 17.7764-1.93848 21.6006-3.41016 4.5918-12.2236 10.752-56.0312-34.5283-101.343l-230.992-230.976 1.66406-28.6562c3.50391-59.9678 10-167.439 15.5996-259.567 4.94434-82 9.63281-159.44 9.93652-166.032.160156-4.52832.224609-5.60059-3.99902-10.6885-9.44043-11.4717-27.0566-30.9121-41.9043-47.0244-23.0244 62.0322-71.4082 193.057-98.1279 266.4l-34.3359 94.3682-71.0244-71.0244-130.608-125.584-18.1924-18.1602-.55957-25.6797c-.431641-20.4961-.335938-57.2803-.288086-89.7119.0644531-22.5918.128906-43.1201-.03125-54.4316-.288086-.52832 4.36816-1.15234 3.93652-1.9043-2.78418 4.46387-5.77637 9.28027-8.94434 14.2881-26.3359 42-62.7842 100.096-73.9043 118.224l-8.12793 13.2803-13.3438 8.06445c-48.5283 29.3115-102.288 63.1514-135.088 84.2871 1.13574.65625 2.06348-2.81543 2.81543-2.41504h2.12793c10.3203 0 27.376-.223633 46.4961-.496094 25.0078-.335938 53.376-.751953 75.0879-.751953 8.32031 0 15.7119.0644531 21.6641.192383l25.6797.591797 18.1602 18.1602 125.744 129.712 70.7842 70.752-93.9355 34.5596c-70.5918 25.9678-205.808 76.4639-269.056 100.224 16.2236 14.9443 35.7754 32.6885 47.1836 42.1289 3.18359 2.62402 5.66406 3.96777 7.37598 3.96777l2.25586-.0644531c7.05566-.335938 94.6875-6.06348 179.407-11.5996 89.9355-5.87207 191.439-12.4961 249.151-16.1602l28.8477-1.80762 231.024 231.04c32.4482 32.4004 64.3203 37.248 80.449 37.2475zM934.321 958.093c-37.8076 0-84.2217-14.5264-125.678-55.998l-210.608-210.592c-118.624 7.50391-422.432 27.5996-429.968 27.8076-1.34375.0644531-3.00781.128906-4.87988.128906-10.2559 0-27.9678-1.96777-48.1279-18.624-23.6641-19.5684-73.0078-65.9688-73.0078-65.9688-11.9043-11.9355-17.9365-26.7197-16.4961-40.624.879883-8.40039 5.43945-23.7119 26.0635-31.7764 12.5283-4.91211 211.904-79.5039 303.969-113.376l-125.744-129.712c-5.56836-.12793-12.4648-.192383-20.2568-.192383-38.3359 0-97.7764 1.24805-121.601 1.24805-3.15234 0-5.68066 0-7.47266-.0644531-7.24805-.223633-22.2559 3.34473-61.8398-29.7432l-2.81641-2.62402c-11.8721-11.8721-14.6562-23.7119-14.9121-31.5361-.255859-8.06445 1.9043-19.6807 13.5684-29.0244 7.00781-5.66406 96.8477-63.1836 170.527-107.68 17.6641-28.8164 98.9443-158 103.185-165.008 6.19238-10.4639 16.3203-16.4316 28.4326-16.8154h1.00781c11.7764 0 23.8721 5.83984 35.7119 17.3438 33.5039 39.1836 28.8799 55.4072 29.0234 62.2236.52832 21.376-.368164 111.936.399414 147.84l130.592 125.6c33.376-91.6797 106.336-289.008 111.216-301.567 8.12793-20.624 23.4404-25.1523 31.8408-26 1.37598-.160156 2.78418-.224609 4.16016-.224609 12.624 0 25.7119 5.93555 36.4316 16.6553 0 0 46.2559 49.0879 65.9043 72.9756 19.6797 23.8721 18.9121 44.2559 18.5283 53.8721-.160156 6.65625-18.6885 308.816-25.5684 426.816l210.656 210.656c74.6562 74.6885 62.7842 164.688 35.0566 192.368-12.2402 12.3037-37.0244 21.6152-67.2969 21.6158z" glyph-name="plane" unicode="&#xe012;"/><glyph d="M849.152 960h-637.999c-46 0-66.0322-34-66.0322-66v-127.312h-34.9277c-17.3115 0-31.3438-14.0322-31.3438-31.3447 0-17.3115 14.0322-31.3438 31.3438-31.3438h34.9277v-128.752h-31.9355c-17.3125 0-31.3447-14.0322-31.3447-31.3438 0-17.3125 14.0322-31.3447 31.3438-31.3447h31.9355v-129.44h-32.624c-17.3115 0-31.3438-14.0322-31.3438-31.3438s14.0322-31.3438 31.3438-31.3438h32.624v-128.464h-32.624c-17.3115 0-31.3438-14.0322-31.3438-31.3438s14.0322-31.3438 31.3438-31.3438h32.624v-129.28c0-53.0244 41.5361-64 64.5283-64h639.504c53.0244 0 96 42.9756 96 96v832c0 53.0244-42.96 96-96.0002 96.0002zM209.121 0l-.00097656 129.279h33.3438c17.3115 0 31.3438 14.0322 31.3438 31.3438 0 17.3125-14.0322 31.3447-31.3438 31.3447h-33.3438v128.464h33.3438c17.3115 0 31.3438 14.0322 31.3438 31.3438s-14.0322 31.3438-31.3438 31.3438h-33.3438v129.44h34.0322c17.3125 0 31.3447 14.0322 31.3447 31.3447 0 17.3115-14.0322 31.3438-31.3438 31.3438h-34.0322v128.752h31.0244c17.3115 0 31.3438 14.0322 31.3438 31.3438 0 17.3125-14.0322 31.3447-31.3438 31.3447h-31.0244v127.312c0 .751953.0644531 1.37598.160156 1.93555.496094.0322266 1.12012.0644531 1.87207.0644531h510v-896h-512.032zM881.152 31.999c0-17.6641-14.3359-32-32-32h-64v896h64c17.6641 0 32-14.3359 32-32v-832z" glyph-name="notebook" unicode="&#xe013;"/><glyph d="M792.848 223.28c-101.344 0-158.865 47.6289-196.945 79.1484-13.4717 11.1523-25.7275 21.9043-36.8799 31.6641-16.9121 14.8477-38 33.3438-45.3438 35.9033-.223633 0-3.71191.160156-3.93555.192383-1.16797-.0957031-4.14355-.6875-4.44727-.719727-5.07227-2.06445-23.0879-17.5684-37.5684-30-13.1357-11.2803-28.1113-24.1602-45.0391-37.376l-3.08789-2.36816c-43.4717-33.9355-97.584-76.1592-193.152-76.1592-70.9922 0-140.928 32.1279-182.576 83.8721-27.9199 34.6885-57.2959 95.0244-38.6719 185.473 2.25586 10.9443 10.0156 19.9043 20.4316 23.6318 10.4805 3.77637 22.0166 1.71191 30.6084-5.37598.624023-.463867 22.5762-17.3438 59.0566-17.3438 18.3682 0 37.5039 4.33594 56.832 12.9443 33.1357 14.752 56.7354 56.1279 81.7109 84.0635 34.1758 38.1602 72.8477 81.4082 136.688 81.9043 44.0479 0 83.792-16.2881 119.248-48.4961 35.3115 32.0645 74.7676 48.2568 117.68 48.2568 65.1035-.496094 104.592-43.7764 139.439-82 25.4404-27.8721 49.4727-69.2158 82.6084-83.9678 19.3281-8.5918 38.6719-12.9434 57.4883-12.9434 37.8721 0 61.5039 17.3115 62.4482 18.0635 8.76758 6.49609 20.3193 8.19238 30.4795 4.22461 10.1436-4 17.6797-12.8799 19.7119-23.6641 17.0879-89.4404-12.96-149.408-41.1836-183.968-42.7676-52.4004-113.903-84.96-185.6-84.9598zM510.733 434.125c.992188 0 3.68262-.0947266 4.62695-.19043.0322266 0 4.68848-.335938 4.68848-.368164.335938-.0322266 3.00781-.368164 3.2959-.432617 23.1523-3.28027 44.624-22.1279 77.2158-50.6875 10.7041-9.4082 22.4961-19.7441 35.4717-30.4961 34.7842-28.8164 78.0967-64.6562 156.816-64.6562 53.3115 0 105.743 23.6318 136.783 61.6797 20.4004 24.9756 31.0088 54.7197 31.6807 88.7842-15.0244-4.68848-33.2803-8.19238-54.3203-8.19238-27.6641 0-55.5684 6.19238-82.9766 18.3682-45.248 20.0957-76.3037 69.1201-103.68 99.1523-34.5283 37.8721-57.4727 61.0879-92.0811 61.376-46.1602 0-75.9521-29.0557-94.416-50.9121-6.03223-7.12012-14.8164-11.2158-24.0967-11.2158v0c-9.28027 0-18.0801 4.12793-24.0801 11.248-18.5283 21.9355-48.416 51.1191-93.8398 51.1191-35.0879-.255859-57.4082-23.2803-90.9922-60.8486-27.0557-30.2236-57.6953-79.4717-103.231-99.6797-27.3916-12.1924-55.1035-18.3682-82.3037-18.3682-20.4004 0-38.0645 3.4082-52.624 8.03223-.0322266-34.7197 10.1113-64.9121 30.335-90.0322 29.9355-37.1523 81.0391-60.2559 133.439-60.2559 74 0 114.896 31.9355 154.464 62.8154l3.08789 2.41602c16.0479 12.5283 30.2402 24.752 42.6885 35.4404 28.5117 24.4961 47.3281 40.6885 67.6484 44.2881v0c.015625-.015625 9.69531 1.61621 16.3994 1.61621z" glyph-name="mustache" unicode="&#xe014;"/><glyph d="M513.584 960c-158.128 0-289.504-128.225-289.504-286.337v-451.312c0-158.128 131.376-286.352 289.504-286.352s286.352 128.224 286.352 286.336v451.328c0 158.112-128.224 286.336-286.352 286.336v.001zM735.936 222.335c0-122.592-99.7422-222.336-222.351-222.336s-225.505 99.7441-225.505 222.336v451.328c0 122.592 102.912 222.336 225.504 222.336s222.352-99.7441 222.352-222.336v-451.328zM512.338 767.999c-17.6641 0-32-14.3359-32-32v-160c0-17.6641 14.3359-32 32-32 17.6641 0 32 14.3359 32 32v160c0 17.6641-14.3359 32-32 32z" glyph-name="mouse" unicode="&#xe015;"/><glyph d="M960.288 899.824v29.0078c0 17.6797-14.3203 32-32 32h-224.624c-17.6797 0-32-14.3203-32-32v-130.656c0-.0478516.0322266-.0957031.0322266-.143555v-397.52c0-96.3203-54.3359-174.656-150.656-174.656s-168.656 78.3359-168.656 174.656v499.312h-.0957031v29.0078c0 17.6797-14.3203 32-32 32h-224.624c-17.6797 0-32-14.3203-32-32v-130.656c0-.65625.335938-1.2002.368164-1.83984v-410.496c0-248.912 198.784-450.656 447.664-450.656 248.88 0 448.656 201.744 448.656 450.656v513.984zM896.288 896.832v-128.336h-160.256v128.336h160.256zM288.288 896.832v-128.336h-160.256v128.336h160.256zM511.68-.832031c-213.216 0-383.663 173.472-383.663 386.655v318.672h160.336v-303.984c0-131.808 100.848-238.655 232.655-238.655s214.672 106.848 214.672 238.655v303.984h160.656v-318.672c0-213.184-171.424-386.655-384.656-386.655z" glyph-name="magnet" unicode="&#xe016;"/><glyph d="M1020.51 530.624l-102.783 153.678 51.1523 178.816c3.18359 11.2158.0634766 23.2803-8.22461 31.5039-8.25586 8.25586-20.2559 11.3115-31.5361 8.03125l-178.512-52.1279-154.288 103.904c-9.71191 6.52832-22.1602 7.3125-32.4639 1.93652-10.3682-5.31152-17.0244-15.8711-17.4082-27.5029l-5.53613-185.936-146.496-114.592c-9.18359-7.18359-13.7119-18.8154-11.8721-30.3193s9.80762-21.0879 20.8154-25.0234l137.456-49.2803c-.927734-.736328-1.90332-1.39258-2.76758-2.25684l-530.752-530.752c-12.4961-12.4961-12.4961-32.752 0-45.248 6.25586-6.25586 14.4316-9.37598 22.624-9.37598 8.1924 0 16.3682 3.12012 22.624 9.37598l530.752 530.752c2.06445 2.06445 3.66406 4.40039 5.04004 6.81641l53.792-147.552c4-10.9443 13.6318-18.8486 25.1514-20.6562 1.63184-.255859 3.28027-.368164 4.91211-.368164 9.80762 0 19.1836 4.52832 25.3115 12.4326l113.776 147.168 183.904 6.55957c11.6641.400391 22.1602 7.12012 27.4404 17.5361 5.26367 10.3838 4.44727 22.8477-2.1123 32.4795zM794.049 537.454c-9.50391-.320312-18.3682-4.88184-24.1924-12.4014l-87.4717-113.104-48.9756 134.32c-3.24805 8.94434-10.3203 15.9365-19.2803 19.1523l-134.592 48.2559 112.624 88.0645c7.50391 5.87207 11.9678 14.752 12.2881 24.2559l4.25586 142.944 118.592-79.8721c7.9043-5.31152 17.7764-6.81543 26.8486-4.19141l137.248 40.0957-39.3438-137.472c-2.5918-9.15234-1.00781-18.9766 4.33594-26.8486l80.5596-118.128z" glyph-name="magic-wand" unicode="&#xe017;"/><glyph d="M833.056 895.392h-64.4648v-215.408c0-104.384-56.6562-183.359-178.097-245.199 126.064-63.8076 179.104-142.159 179.104-259.071 0-76.1279-.335938-140-.591797-175.12h64.0645c17.6797 0 32-14.2881 32-31.9678s-14.3203-32-32-32h-642.128c-17.6797 0-32 14.3203-32 32s14.3203 31.9678 32 31.9678h65.9355c-.240234 35.1201-.591797 99.0078-.591797 175.12 0 116.912 52.2881 195.248 178.145 259.056-121.232 61.8398-177.137 140.815-177.137 245.199v215.424h-66.3516c-17.6797 0-32 14.3037-32 32 0 17.6641 14.3203 31.9844 32 31.9844h642.128c17.6797 0 32-14.3203 32-31.9844-.015625-17.6963-14.3193-32-32.0156-32zM320.271 175.712c0-76.2881.352539-140.224.592773-175.12h384.176c.223633 34.9121.591797 98.8477.591797 175.12 0 89.0078-33.1201 158.032-193.185 224.4-160.016-66.3682-192.176-135.393-192.176-224.4zM704.623 895.392h-383.359v-215.408c0-61.376 20.6396-140.416 191.168-210.528 170.56 70.1123 192.191 149.152 192.191 210.528v215.408z" glyph-name="hourglass" unicode="&#xe018;"/><glyph d="M990.848 263.696v258.144l16.0957 8.49609c10.4639 5.44043 17.0557 16.2246 17.1836 28.0322.12793 11.7764-6.25586 22.6885-16.5918 28.3682l-481.44 257.6c-9.63184 5.28027-21.2803 5.24805-30.9766-.0957031l-478.8-257.92c-10.1924-5.67969-16.4961-16.4639-16.4316-28.1602s6.49609-22.4004 16.8164-27.9688l210.384-111.984c-2.63965-4.65625-4.27148-9.96777-4.27148-15.6953v-270.784c0-9.12012 3.9043-17.8398 10.7207-23.9043 6.94434-6.16016 73.4404-60.0957 276.752-60.0957 202.592 0 270.88 50.9756 278 56.7832 7.44043 6.06445 11.7441 15.1523 11.7441 24.7842v277.728c0 4.49609-.944336 8.76855-2.6084 12.6406l129.424 68.3682v-224.512c-18.9756-11.1035-31.8398-31.4717-31.8398-55.0234 0-35.3438 28.6562-64 64-64s64 28.6562 64 64c0 23.6963-13.04 44.1445-32.1602 55.2002zM736.031 147.632c-25.1523-12.0957-91.7119-35.9043-225.744-35.9043-134.88 0-199.936 25.3438-223.472 37.5361v237.136l207.808-110.624c4.71973-2.55957 9.96777-3.83984 15.1836-3.83984 5.08789 0 10.1924 1.21582 14.8164 3.66406l211.408 111.664v-239.632zM510.063 340.19l-411.6 218.561 412.32 220.976 413.6-220.336z" glyph-name="graduation" unicode="&#xe019;"/><glyph d="M511.984 960.128c-229.216 0-415.681-199.903-415.681-445.6v-546.672c0-13.2158 8.16016-25.0879 20.4961-29.8398 3.71191-1.47168 7.63184-2.16016 11.5039-2.16016 8.84766 0 17.5361 3.67969 23.7119 10.5273l120.592 133.12 94.4316-130.432c5.96777-8.25586 15.5039-13.1514 25.6797-13.2158h.223633c10.0957 0 19.6318 4.78418 25.6641 12.9121l94.8164 127.344 93.1836-127.152c6.03223-8.22363 15.6006-13.0879 25.8086-13.0879 10.1924 0 19.7764 4.84766 25.8086 13.0557l95.5684 130.288 118-132.624c8.81641-9.9043 22.9443-13.376 35.2803-8.62402 12.4004 4.71973 20.624 16.624 20.624 29.9043v546.672c0 245.68-186.496 445.584-415.712 445.584zM863.695 51.9688l-88.4023 99.375c-6.43164 7.21582-15.8076 11.3115-25.4072 10.6875-9.66406-.463867-18.5918-5.24805-24.3193-13.0244l-93.1201-127.008-93.0078 126.912c-6 8.19238-15.5361 13.0566-25.6797 13.0889h-.12793c-10.1279 0-19.6318-4.78418-25.6641-12.9121l-94.6885-127.152-92 127.088c-5.66406 7.80762-14.5283 12.6553-24.1602 13.1514-.591797.0322266-1.15137.0644531-1.74316.0644531-9.00781 0-17.6318-3.80762-23.7119-10.5273l-91.376-100.848v463.68c0 210.4 157.776 381.601 351.681 381.601 193.936 0 351.712-171.184 351.712-381.6v-462.576h.015625zM671.997 607.84c-35.2803 0-63.8398-28.5918-63.8398-63.8076 0-35.248 28.5596-63.8398 63.8398-63.8398s63.8398 28.5918 63.8398 63.8398c0 35.2158-28.5596 63.8076-63.8398 63.8076zM351.997 607.84c-35.2803 0-63.8398-28.5918-63.8398-63.8076 0-35.248 28.5762-63.8398 63.8398-63.8398s63.8398 28.5918 63.8398 63.8398c0 35.2158-28.5596 63.8076-63.8398 63.8076z" glyph-name="ghost" unicode="&#xe01a;"/><glyph d="M743.216 884.448c-25.5996 12.0156-49.8057 23.3281-71.8379 34.3838-56.4639 28.2881-107.664 42.0322-156.464 42.0322-98.2881 0-166.304-56.7041-208.96-99.3604l-206.848-207.072c-110.688-110.8-128.368-223.6-57.2646-365.808 11.0244-22.0801 22.3682-46.3359 34.3682-72.0322 64.7041-138.384 131.584-281.487 241.056-281.487 3.07227 0 6.1123.0957031 9.21582.335938 112.976 8.84766 145.023 154.288 173.312 282.592 4.49609 20.3203 8.75195 39.8086 13.1201 57.2803 7.59961 30.208 22.5596 48.9756 63.5518 90.0635l5.63184 5.66406 3.47168 3.47168 9.12012 9.08789c41.0879 41.0879 59.8555 56.0322 90.0957 63.6641 17.3115 4.35156 36.752 8.63965 57.0244 13.0879 128.224 28.3037 273.6 60.3682 282.399 173.521 8.87988 114.832-138.464 183.84-280.992 250.575zM958.466 639.665c-6.22363-79.7764-184.813-103.324-291.102-129.98-47.0078-11.8721-75.6162-36.752-118.784-79.9355-3.00781-3.00781-6.03223-6.01562-9.08789-9.07129-3.02441-3.02441-6.03223-6.09668-9.05664-9.08887-43.168-43.2158-68-71.8076-79.8242-118.88-26.6719-106.384-50.1914-285.168-129.871-291.44-1.44043-.112305-2.88086-.144531-4.32129-.144531-84.5439 0-155.68 192.24-218.447 317.664-63.7441 127.504-36.4326 210.224 45.3594 292.096 15.6963 15.7275 35.2158 35.2471 59.1357 59.1826 24.4316 24.4639 53.4873 53.5518 87.9189 88 23.9043 23.9355 43.4082 43.4238 59.1201 59.1836 50.7998 50.8477 101.936 80.6396 163.92 80.6396 37.8076 0 79.6318-11.0557 127.872-35.248 127.456-63.9043 323.888-136.48 317.168-222.978zM478.788 608.725h64v64h-64v-64zM478.788 704.725h64v64h-64v-64zM574.788 704.725h64v64h-64v-64zM574.788 608.725h64v64h-64v-64zM329.893 416.564l24.3359 24.3359c12 12 12 31.4717 0 43.4561-12 12-31.4404 12-43.4404 0l-24.3516-24.3516-24.3516 24.3516c-12 12-31.4404 12-43.4404 0s-12-31.4561 0-43.4561l24.3516-24.3516-24.3516-24.3516c-12-11.9844-12-31.4404 0-43.4404s31.4561-12 43.4404 0l24.3516 24.3359 25.0557-25.0557c12-12 31.4404-12 43.4404 0s12 31.4717 0 43.4717z" glyph-name="game-controller" unicode="&#xe01b;"/><glyph d="M508.416-63.2803c-241.248 0-412.369 167.281-412.369 397.777 0 122.368 73.376 254.192 76.4961 259.712 6.36816 11.3438 18.8799 17.5039 31.9355 16.0635 12.9121-1.66406 23.5361-10.9756 26.8799-23.5674.192383-.751953 19.9688-74.752 46.0645-115.84 17.5361-27.6484 35.3125-47.1846 55.3125-60.7529-13.5361 58.6562-23.9043 146.912-7.02441 237.472 46.3359 248.576 241.984 308.048 250.368 310.448 10.7842 3.08789 22.2246.320312 30.4326-7.15137 8.19238-7.50391 11.9365-18.752 9.80859-29.6641-.320312-1.74414-32.624-175.776 35.9355-324.064 6.22363-13.4717 14.9121-29.1201 24.2559-44.7842 2.65625 21.5039 6.78418 44.3682 13.1201 66.5605 25.1523 87.9678 90.1924 118 92.9443 119.216 10.8477 4.94434 23.5039 3.3125 32.8799-4.03125 9.34375-7.37598 13.8398-19.2803 11.6797-31.0078-.335938-2.16016-9.4082-62.0322 41.5361-146.944 46-76.6719 59.2803-126.368 59.2803-221.681 0-230.48-176.432-397.761-419.536-397.761zM195.695 492.32c-17.5684-44.3037-35.665-103.246-35.665-157.806 0-193.408 144.192-333.776 348.368-333.776 206 0 355.536 140.368 355.536 333.776 0 83.5361-10.3203 122.32-50.1602 188.752-26.624 44.3682-39.7764 84.2559-46.0645 116-6.33594-10.2559-12.2236-22.7842-16.5273-37.8721-19.5039-68.1924-14.5918-147.937-14.5273-148.753.944336-14.2725-7.74414-27.4727-21.248-32.2568s-28.5283-.0644531-36.8164 11.6631c-2.40039 3.4082-59.3125 83.9678-84.4004 138.24-52.0957 112.592-51.2158 234.336-45.9043 304.464-52.7197-30.7197-133.664-99.3438-159.664-238.912-25.3115-135.808 23.8721-271.6 24.4004-272.943 4.25586-11.0879 2-23.6641-5.80762-32.5918-7.83984-8.87988-19.9043-12.8154-31.5361-10.0312-3.96777.975586-94.0322 24.3994-152.336 116.287-10.416 16.4639-19.7598 36.3838-27.6475 55.7598z" glyph-name="fire" unicode="&#xe01c;"/><glyph d="M1025.38 308.208c-.975586 13.8398-53.0078 319.313-61.1514 368.226-.78418 4.68848-1.4082 9.68066-2.0957 14.9443-6.28809 49.1523-18.0322 140.624-165.473 140.624-17.6797 0-32-14.3203-32-32s14.3203-32 32-32c91.1201 0 95.9365-37.4082 102.001-84.7842.78418-6.06445 1.53613-11.8721 2.43262-17.2803 3.74414-22.5283 20.7041-112.16 35.3438-201.024-37.5518 28.624-84.2881 45.8076-135.12 45.8076-81.6484 0-154.32-43.9521-194.272-109.36-19.2158 7.26367-51.8242 16.3359-95.3926 16.3359-42.9443 0-74.5127-9.13574-94.0322-17.0879-38.8477 65.8242-110.304 110.128-192.271 110.128-53.2637 0-102.735-18.7197-141.84-49.8398 14.832 89.9844 32.4004 182.032 36.208 205.024.912109 5.4082 1.66406 11.2158 2.43164 17.2803 6.06445 47.376 10.8809 84.7842 102.001 84.7842 17.6797 0 32 14.3203 32 32s-14.3203 32-32 32c-147.44 0-159.185-91.4717-165.473-140.624-.688477-5.24805-1.3125-10.2559-2.09668-14.9443-8.16016-48.9121-57.0078-352.368-57.9678-366.225-.223633-3.08789.144531-6.04785.75293-8.94336-.303711-4.62402-.719727-9.21582-.719727-13.9043 0-123.344 103.344-223.344 226.688-223.344 123.344 0 223.344 100 223.344 223.344 0 18.6562-2.54395 36.6719-6.84766 53.9834 13.1201 5.28027 36.832 12.3359 69.8076 12.3359 32.1758 0 56.4639-6.43164 70.3037-11.3281-4.6084-17.6318-7.32812-35.9678-7.32812-54.9922 0-123.344 103.344-223.344 226.688-223.344s223.344 100 223.344 223.344c0 3.34375-.351562 6.60742-.495117 9.91992.975586 3.48828 1.51953 7.13672 1.23145 10.9443zM225.344 128.018c-88.1924 0-162.688 72.9756-162.688 159.344s74.4961 159.344 162.688 159.344c87.8721 0 159.344-71.4717 159.344-159.344s-71.4717-159.344-159.344-159.344zM801.312 128.018c-88.1924 0-162.689 72.9775-162.689 159.346s74.4961 159.344 162.688 159.344c76 0 139.632-53.4883 155.456-124.784.65625-6.52832 1.2002-12.6719 1.61621-18.2881.192383-2.68848.912109-5.2168 1.83984-7.66504.160156-2.87988.432617-5.71191.432617-8.62402 0-87.8564-71.4717-159.328-159.344-159.328z" glyph-name="eyeglass" unicode="&#xe01d;"/><glyph d="M1023.31 486.704c-1.36035 11.3115-5.61426 21.7129-12.0947 30.4648h.160156l-.879883.879883c-3.28027 4.32031-7.12012 8.12793-11.4082 11.5039l-417.28 403.408c-36.2236 36.2236-99.5039 36.2881-135.776 0l-417.216-400.256c-9.02441-8.40039-28.8809-31.0889-28.8809-53.3447v-479.52c0-35.1836 28.8164-64 64-64h896c35.1836 0 64 28.8164 64 64v478.256c.223633 2.87988-.0644531 5.75977-.624023 8.60742zM269.794 233.665l-205.856-189.567v371.184zM335.569 207.281c2.28809 1.51953 4.46484 3.24805 6.36914 5.4082.368164.416016.624023.912109.959961 1.34375l141.168 130c7.24805 5.83984 15.8398 8.91211 24.8799 8.91211 9.18359 0 18.3672-3.21582 24.5273-8l383.6-345.104h-806.736zM757.458 229.442l202.48 179.696v-361.84zM103.778 517.171l387.501 370.544c6.06445 6.03223 14.0967 9.37598 22.625 9.37598 8.55957 0 16.5918-3.34375 22.6562-9.37598l361.376-344.352h-.975586l54.8965-55.792-242.304-215.04-135.248 121.664c-37.6797 29.5361-91.7754 30.8164-131.68-1.37598l-125.504-115.584-241.792 213.344 26.9922 26.5918h1.45605z" glyph-name="envelope-open" unicode="&#xe01e;"/><glyph d="M1023.31 486.72c-1.36035 11.3115-5.61426 21.7129-12.0947 30.4648h.160156l-.879883.879883c-3.28027 4.32031-7.12012 8.12793-11.4082 11.5039l-167.152 168.384v103.264c0 17.6797-14.3203 32-32 32h-101.328l-116.8 99.7119c-36.2236 36.2236-99.5039 36.2881-135.776 0l-116.4-99.7119h-105.696c-17.6797 0-32-14.3203-32-32v-105.376l-163.12-163.12c-17.3438-11.4717-28.8799-31.0879-28.8799-53.3438v-479.504c0-35.1836 28.8164-64 64-64h896c35.1836 0 64 28.8164 64 64v478.24c.223633 2.87988-.0644531 5.75977-.624023 8.60742zM268.865 234.497l-204.928-190.079v370.896zM330.562 204.498c4.22363 1.80762 8.12891 4.52734 11.377 8.22363 1.71191 1.93555 3.05566 4.06348 4.22363 6.25586l137.904 127.936c7.24805 5.83984 15.8398 8.91211 24.8799 8.91211 9.18359 0 18.3672-3.21582 24.5273-8l383.84-347.936h-807.312zM758.339 230.274l201.6 178.896v-361.632zM897.938 543.378h-.975586l54.8955-55.792-119.92-106.432v228.208zM491.283 887.682c6.06445 6.03223 14.0947 9.37598 22.623 9.37598 8.55957 0 16.5918-3.34375 22.6562-9.37598l64.624-54.4639h-174.432zM767.938 769.218v-444.848l-57.3115-50.8799-136.32 123.568c-37.6797 29.5361-91.7754 30.8164-131.68-1.37598l-126.624-117.44-60.0645 53.0078v437.968zM103.777 517.187l88.1602 88.1289v-217.616l-116.624 102.896 26.9922 26.5918h1.47168z" glyph-name="envolope-letter" unicode="&#xe01f;"/><glyph d="M595.344 895.28h.175781-.175781zM595.344 895.28l-72.207-379.377 261.584-.879883-356.064-514.304 72.208 417.376-261.568.912109zM595.393 959.279c-1.72754 0-3.45508-.0625-5.15137-.19043-11.2959-.912109-18.7842-4.68848-27.6641-10.6562-4.92773-3.28027-9.43945-7.28027-13.3916-11.9365-1.16797-1.37598-2.27246-2.81641-3.29688-4.28809l-358.608-474.608c-14.1602-19.4082-16.2402-45.0244-5.36035-66.4326 10.8643-21.4082 32.832-34.9766 56.9121-35.1523l184.736-1.34375-58.0801-342.192c-5.51953-29.4082 10.1602-58.7207 37.7598-70.5283 8.22363-3.53613 16.8633-5.21582 25.3916-5.21582 20.1123 0 36.6406 9.4082 49.041 26.4004l359.056 514.304c14.1602 19.4082 16.2246 45.0566 5.36035 66.4326-10.8643 21.4082-32.832 34.9766-56.9121 35.1523l-184.736.320312 57.4561 300.88c1.2002 4.84766 1.82422 9.87207 1.82422 15.0557 0 34.624-27.5684 62.8477-62.0645 63.9678-.767578.0322266-1.51953.0322266-2.27148.0322266v0z" glyph-name="energy" unicode="&#xe020;"/><glyph d="M781.264 352.848c-16.2559 7.28027-35.0889-.0644531-42.2568-16.1924-.65625-1.42383-66.1279-144.208-229.439-146.128-1.00781 0-2-.0322266-3.00781-.0322266-153.664 0-219.937 140.368-222.688 146.4-7.31152 16-26.1914 23.1201-42.3193 15.8721-16.0957-7.28027-23.248-26.208-15.9678-42.3359 3.4082-7.56836 85.376-183.937 280.848-183.937 1.28027 0 2.5918.0322266 3.87207.0322266 203.872 2.40039 283.84 176.656 287.12 184.064 7.24805 16.1602-.0322266 35.0723-16.1602 42.2559zM511.999 959.999c-282.784 0-512-229.216-512-512s229.216-512 512-512 512 229.216 512 512-229.216 512-512 512zM511.999-.00097656c-247.024 0-448 200.976-448 448s200.976 448 448 448 448-200.976 448-448-200.976-448-448-448zM351.503 480.175c35.2637 0 63.8398 28.5918 63.8398 63.8242s-28.5762 63.8242-63.8398 63.8242c-35.2803 0-63.8398-28.5918-63.8398-63.8242s28.5596-63.8242 63.8398-63.8242zM671.503 480.175c35.2637 0 63.8398 28.5918 63.8398 63.8242s-28.5762 63.8242-63.8398 63.8242c-35.2803 0-63.8398-28.5918-63.8398-63.8242s28.5596-63.8242 63.8398-63.8242z" glyph-name="emotsmile" unicode="&#xe021;"/><glyph d="M512 960c-282.784 0-512-229.216-512-512s229.216-512 512-512 512 229.216 512 512-229.216 512-512 512zM960 448c0-66.3203-14.5928-129.263-40.5605-185.935l-283.216 151.552c3.02441 10.9756 4.78418 22.4639 4.78418 34.3838 0 71.248-57.7441 129.008-129.008 129.008-14.624 0-28.624-2.54395-41.7119-7.02441l-169.616 272.912c62.9922 33.8398 134.944 53.1035 211.328 53.1035 247.024 0 448-200.976 448-448zM511.999 512.994c35.8398 0 65.0078-29.1514 65.0078-65.0078s-29.168-64.9922-65.0078-64.9922-64.9922 29.168-64.9922 65.0078 29.1523 64.9922 64.9922 64.9922zM246.575 808.627l170.177-273.84c-.751953-.832031-1.53613-1.64844-2.28809-2.5127l-283.168 151.52c30.208 48.5762 69.3916 90.9766 115.279 124.833zM64 448.003c0 63.6797 13.4395 124.256 37.5039 179.168l284.368-152.16c-1.85645-8.71973-2.88086-17.7275-2.88086-27.0078 0-71.248 57.7441-129.008 129.008-129.008 12.4004 0 24.3525 1.83984 35.6963 5.10352l170.192-273.792c-61.6797-32.0479-131.664-50.3037-205.888-50.3037-247.024 0-448 200.976-448 448zM772.447 83.8428l-169.504 272.688c.496094.496094.959961 1.02441 1.45605 1.53613l284.288-152.144c-30.752-47.6318-70.2402-89.0879-116.24-122.08z" glyph-name="disc" unicode="&#xe022;"/><glyph d="M1016.4 463.36l-8.47949 8.0791c-.160156.160156-.335938.224609-.52832.368164l-129.744 118.432c-9.34375 8.94434-24.4482 8.94434-33.8242 0l-5.48828-8.06445c-9.34375-8.94434-6.30371-23.4082 3.04004-32.3359l76.4639-69.3438h-371.344v373.344l69.3438-76.4639c8.94434-9.34375 23.4082-12.3838 32.3359-3.02344l8.06445 5.47168c8.94434 9.37598 8.94434 24.4805 0 33.8408l-113.168 123.968c-2.75195 5.55176-7.00781 10.1436-12.3193 13.2959l-1.42383 1.48828c-4.43164 4.67188-10.3359 7.00781-16.2236 6.97559-5.9043.0322266-11.7764-2.30371-16.2881-6.97559l-8.0957-8.46387c-.160156-.160156-.175781-.368164-.335938-.543945l-115.504-127.744c-8.92773-9.32812-8.92773-24.4482 0-33.8242l8.06445-5.47168c8.92773-9.34375 23.4238-6.31934 32.3682 3.02441l69.1523 77.1045v-375.984h-376.304l76.4639 69.3438c9.34375 8.94434 12.3838 23.4082 3.04004 32.3359l-5.47168 8.06445c-9.36035 8.94434-24.4961 8.94434-33.8398 0l-123.984-113.184c-5.53613-2.73633-10.1279-7.00879-13.2803-12.2891l-1.48828-1.42383c-4.68848-4.44824-7.00879-10.3525-6.97656-16.2402-.015625-5.9043 2.28809-11.7764 6.97656-16.2881l8.46387-8.0957c.160156-.160156.368164-.175781.52832-.335938l127.744-115.504c9.34375-8.92773 24.4639-8.92773 33.8398 0l5.47168 8.06445c9.34375 8.94434 6.30371 23.4404-3.04004 32.3682l-77.1201 69.1523h379.008v-376.96l-69.1523 77.1035c-8.94434 9.34375-23.4404 12.3682-32.3682 3.02441l-8.06445-5.47168c-8.92773-9.37598-8.92773-24.4961 0-33.8242l115.504-127.744c.160156-.175781.192383-.368164.335938-.52832l8.0957-8.48047c4.51172-4.67188 10.3838-7.00781 16.2881-6.97559 5.87207-.0322266 11.7764 2.30371 16.2246 6.97559l8.0957 8.48047c.160156.160156.224609.335938.368164.52832l118.432 129.744c8.94434 9.34375 8.94434 24.4639 0 33.8242l-8.06445 5.48828c-8.94434 9.34375-23.4082 6.30371-32.3359-3.04004l-69.3438-76.4639v374.336h373.968l-77.1045-69.1523c-9.34375-8.94434-12.3682-23.4404-3.02441-32.3682l5.47168-8.06445c9.37598-8.92773 24.4961-8.92773 33.8242 0l127.744 115.504c.175781.175781.368164.191406.52832.334961l8.48047 8.0957c4.67188 4.49609 7.00781 10.3682 6.97559 16.2881.0322266 5.85645-2.30371 11.7764-6.97559 16.2246z" glyph-name="cursor-move" unicode="&#xe023;"/><glyph d="M992 160l-128-.00195312v593.904l119.456 119.296c12.4805 12.4961 12.4805 32.7686 0 45.2646-12.4961 12.4961-32.7686 12.4961-45.2646 0l-118.608-118.464h-595.584v128c0 17.6797-14.3203 32-32 32s-32-14.3203-32-32v-128h-128c-17.6797 0-32-14.3203-32-32 0-17.6641 14.3203-32 32-32h128v-608c0-2.94434.944336-5.60059 1.68066-8.28809.320312-1.21582.255859-2.46387.719727-3.63184 3.21582-8.06445 9.59961-14.4326 17.6641-17.6807 1.37598-.55957 2.87988-.495117 4.28809-.84668 2.52832-.639648 4.92871-1.55176 7.64844-1.55176h608v-128c0-17.6797 14.3203-32 32-32s32 14.3203 32 32v128h128c17.6797 0 32 14.3203 32 32 0 17.6797-14.3203 32-32 32zM755.488 735.998l-531.488-530.784v530.784h531.488zM269.28 159.998l530.72 529.984v-529.984z" glyph-name="crop" unicode="&#xe024;"/><glyph d="M928.144 784h-832.288c-53.0244 0-96-42.9756-96-96v-480c0-53.0244 42.9756-96 96-96h832.288c53.0244 0 96 42.9756 96 96v480c0 53.0244-42.9756 96-96 96zM95.8555 720h832.288c17.6641 0 32-14.3359 32-32v-64h-896.288v64c0 17.6641 14.3516 32 32 32zM928.144 176h-832.288c-17.6641 0-32 14.3359-32 32v288h896.288v-288c0-17.6641-14.3516-32-32-32z" glyph-name="credit-card" unicode="&#xe025;"/><glyph d="M810.416-10.7197l-170.401 201.664v353.504h21.3115c17.6797 0 32 14.3203 32 32s-14.3203 32-32 32h-53.3115c-17.6797 0-32-14.3203-32-32v-397.824c0-7.93555 2.94434-15.5674 8.25586-21.4395l130.368-157.344h-405.28l130.368 157.344c5.31152 5.87207 8.25586 13.5039 8.25586 21.4395v397.824c0 17.6797-14.3203 32-32 32h-53.3115c-17.6797 0-32-14.3203-32-32s14.3203-32 32-32h21.3115v-353.504l-170.4-201.664c-8.46387-9.37598-10.624-22.8799-5.50391-34.4316 5.15234-11.5684 16.5928-19.0088 29.249-19.0088h549.344c12.6562 0 24.0967 7.44043 29.249 19.0088 5.12012 11.5518 2.97656 25.0557-5.50391 34.4316zM479.999 640.32c35.2637 0 63.8398 28.5918 63.8398 63.8398 0 35.2158-28.5762 63.8076-63.8398 63.8076-35.2803 0-63.8398-28.5918-63.8398-63.8076 0-35.248 28.5596-63.8398 63.8398-63.8398zM688.479 735.312c62.3682 0 112.928 50.3359 112.928 112.416s-50.5439 112.416-112.928 112.416c-62.3516 0-112.928-50.3359-112.928-112.416s50.5762-112.416 112.928-112.416zM687.983 896.337c26.6562 0 48.3359-21.584 48.3359-48.1279 0-26.5283-21.6797-48.1279-48.3359-48.1279s-48.3359 21.5996-48.3359 48.1279c.015625 26.5439 21.6797 48.1279 48.3359 48.1279z" glyph-name="chemistry" unicode="&#xe026;"/><glyph d="M905.616 248.112c-37.3438 45.4238-88.4805 109.742-88.4805 175.358v208.96c0 180.016-134.64 326.479-306.688 326.479-172.08 0-305.664-146.464-305.664-326.479v-208.96c0-64.5117-55.4883-125.487-90.6719-172.799-31.6484-42.5117-56.624-76.0957-39.7598-109.664 14.832-29.5361 51.9678-33.3281 82.6553-33.3281h183.36c.0478516-94.208 76.4482-170.576 170.672-170.576 94.2402 0 170.641 76.3682 170.688 170.576h187.664c19.5195 0 65.1514 0 80.8633 33.2002 15.8564 33.6162-9.51953 64.5127-44.6396 107.232zM511.007 4.14258c-57.2158 0-103.632 46.3516-103.712 103.535h207.424c-.0800781-57.1836-46.4639-103.535-103.712-103.535zM869.391 175.807h-712.385c-4.89551 0-8.99121.160156-12.3672.368164 6.5918 10.208 16.2715 23.248 24.1436 33.8564 38.9922 52.4004 104.145 126.368 104.145 213.424v208.96c0 142.464 103.04 258.352 237.521 258.352s238.561-115.888 238.561-258.352v-208.96c0-90.0156 60.0801-165.248 103.968-218.608 7.3916-8.99219 16.2393-19.7598 23.1191-28.96-2.03223-.0478516-4.27246-.0800781-6.7041-.0800781z" glyph-name="bell" unicode="&#xe027;"/><glyph d="M1021.06 120.032l-187.262 346.304c19.1035 43.3604 29.792 91.2803 29.792 141.696 0 194.304-157.52 351.808-351.808 351.808-194.336 0-351.84-157.52-351.84-351.808 0-51.6318 11.2158-100.624 31.1836-144.784l-188.096-343.056c-6.06445-11.0244-5.05664-24.624 2.52734-34.6885 7.59961-10.0322 20.4316-14.752 32.6875-11.8721l160.624 36.8477 54.9756-153.12c4.28809-11.9043 15.1523-20.1602 27.7441-21.0879.816406-.0644531 1.60059-.0966797 2.36816-.0966797 11.7119 0 22.5918 6.43164 28.1914 16.8799l163.696 304.976c11.8076-1.2002 23.792-1.80859 35.9199-1.80859 11.1201 0 22.0957.576172 32.9434 1.60059l167.248-305.008c5.66406-10.3203 16.4316-16.624 28.0635-16.624.816406 0 1.66406.0322266 2.49609.0966797 12.5596 1.00781 23.376 9.24805 27.6318 21.0879l54.9756 153.12 160.624-36.8477c12.3203-2.97559 25.0244 1.80859 32.624 11.8086 7.63184 9.98438 8.65625 23.5205 2.68848 34.5762zM289.778 46.6562l-40.2578 112.161c-5.50391 15.248-21.4717 24.1279-37.2793 20.3682l-118.8-27.248 135.408 246.976c44.5918-60.2402 107.952-105.681 181.44-127.793zM224.225 608.033c0 158.544 129.009 287.536 287.568 287.536 158.544 0 287.536-128.992 287.536-287.536s-128.992-287.568-287.536-287.568c-158.576 0-287.568 129.024-287.568 287.568zM811.745 179.186c-15.8721 3.74414-31.7764-5.11914-37.2803-20.3672l-40.5283-112.976-123.152 224.56c75.4404 22.0957 140.337 68.7354 185.505 130.735l134.848-249.328z" glyph-name="badge" unicode="&#xe028;"/><glyph d="M1021.02 228.592l-82.2861 151.298c-.12793.208008-.0957031.400391-.223633.592773l-5.87207 10.1436c-3.28027 5.61621-8.43262 9.23242-14.1924 10.5928-5.69629 1.4082-11.9844.543945-17.4082-2.97559l-9.83984-6.33594c-.192383-.112305-.304688-.288086-.49707-.416016l-145.6-98.3203c-10.8799-7.00781-14.416-21.6797-7.93555-32.9121l6.54395-7.2002c6.48047-11.1836 21.2646-11.6475 32.1611-4.63965l87.04 59.1836c-20.6084-166-154.736-293.392-318.96-308.176v641.6h128.048c17.6641 0 32 14.3359 32 32s-14.3359 32-32 32h-129.44c-.240234.832031-.448242 1.66406-.768555 2.46387 57.1035 13.2803 99.6953 64.3682 99.6953 125.536 0 71.248-57.7441 129.008-129.008 129.008-71.248 0-128.992-57.7441-128.992-129.008 0-60.8164 42.1123-111.664 98.7363-125.28-.335938-.879883-.576172-1.80762-.848633-2.71973h-129.376c-17.6641 0-32-14.3359-32-32s14.3359-32 32-32h127.984v-641.584c-164.176 14.7842-298.16 142.128-318.816 308.112l86.9443-59.1201c10.8799-7.00781 25.6641-6.54395 32.1445 4.63965l6.55957 7.2002c6.48047 11.2158 2.94434 25.9033-7.95117 32.9111l-145.6 98.3203c-.192383.143555-.304688.319336-.480469.415039l-9.85645 6.33594c-5.4082 3.51953-11.6963 4.36719-17.4082 2.97559-5.74414-1.36035-10.9121-4.99219-14.1924-10.5918l-5.87207-10.1602c-.112305-.192383-.0966797-.384766-.208984-.592773l-82.2725-151.296c-6.49609-11.168-2.94434-25.8721 7.95215-32.8965l9.12012-3.42383c10.8799-6.99219 24.2559-.640625 30.752 10.543l47.9043 88.9756c29.376-204.72 205.104-357.823 413.279-357.823 208.064 0 383.921 153.088 413.361 357.712l47.8398-88.8643c6.49609-11.1836 19.8877-17.5352 30.7676-10.543l9.12012 3.42383c10.8965 7.02441 14.4482 21.7285 7.95215 32.8965zM447.506 833.025c0 35.8398 29.1533 65.0098 64.9932 65.0098 35.8399 0 65.0078-29.1523 65.0078-65.0088s-29.1523-65.0088-65.0088-65.0088c-35.8242.015625-64.9922 29.168-64.9922 65.0078z" glyph-name="anchor" unicode="&#xe029;"/><glyph d="M1023.65 669.52c.463867 23.6641-5.9043 78.8477-77.8398 98.0635l-722.416 144.624c-52.9443 0-96-43.0557-96-96v-128.704l-32 .0800781c-52.752-.223633-95.6318-43.1514-95.6318-95.9678v-511.808c0-52.9443 43.0557-96 96-96h832.464c52.9443 0 96 43.0557 96 96zM191.393 816.207c0 16.7197 12.8799 30.4629 29.2158 31.8711l706-142.88c.255859-.12793-5.24805-17.9355-30.8799-17.5996h-704.336zM960.24 79.79c0-17.6641-14.3359-32-32-32h-832.48c-17.6641 0-32 14.3359-32 32v511.824c0 17.6641 14.3359 32 32 32h800.064c31.4082 0 64.4004 10.7041 64.4004 31.8877v-575.712h.015625zM191.824 399.502c-35.3438 0-64-28.6562-64-64s28.6562-64 64-64 64 28.6562 64 64-28.6562 64-64 64z" glyph-name="wallet" unicode="&#xe02a;"/><glyph d="M992 288h-32.2725v1.61621c0 161.92-86.5283 303.808-215.664 382.384h160.816c11.0879-19.04 31.5039-32 55.1201-32 35.3438 0 64 28.6562 64 64s-28.6562 64-64 64c-23.6318 0-44.0322-12.96-55.1201-32h-296.88v32c0 17.6641-14.3359 32-32 32h-128c-17.6641 0-32-14.3359-32-32v-32h-296.88c-11.0879 19.04-31.4883 32-55.1201 32-35.3438 0-64-28.6562-64-64s28.6562-64 64-64c23.6318 0 44.0322 12.96 55.1201 32h160.8c-129.136-78.5918-215.647-220.464-215.647-382.384v-1.61621h-32.2725c-17.6641 0-32-14.3359-32-32v-128c0-17.6641 14.3359-32 32-32h128c17.6641 0 32 14.3359 32 32v128c0 17.6641-14.3359 32-32 32h-31.7275v1.61621c0 178.448 122.464 328.672 287.728 371.392v-21.0078c0-17.6641 14.3359-32 32-32h128c17.6641 0 32 14.3359 32 32v21.0078c165.264-42.7363 287.728-192.96 287.728-371.392v-1.61621h-31.7275c-17.6641 0-32-14.3359-32-32v-128c0-17.6641 14.3359-32 32-32h128c17.6641 0 32 14.3359 32 32v128c0 17.6641-14.3359 32-32 32zM128 160h-64v64h64v-64zM544 672h-64v64h64v-64zM960 160h-64v64h64v-64z" glyph-name="vector" unicode="&#xe02b;"/><glyph d="M960 896.4h-895.999c-35.3438 0-64-28.6562-64-64v-577.504c0-35.3438 28.6562-64 64-64h127.536v-159.312c0-12.9121 7.74414-24.5283 19.6318-29.5039 4-1.67969 8.22363-2.49609 12.3672-2.49609 8.25586 0 16.3359 3.18359 22.4316 9.18359l185.024 182.128h529.008c35.3438 0 64 28.6562 64 64v577.504c0 35.3438-28.6562 64-63.9996 64.0004zM960.001 254.912h-555.216l-149.248-146.912v146.912h-191.536v577.488h896v-577.488zM224.001 510.992h576c17.6641 0 32 14.3359 32 32s-14.3359 32-32 32h-576c-17.6641 0-32-14.3359-32-32s14.3359-32 32-32zM224.001 638.992h576c17.6641 0 32 14.3359 32 32s-14.3359 32-32 32h-576c-17.6641 0-32-14.3359-32-32s14.3359-32 32-32zM224.001 382.992h384c17.6641 0 32 14.3359 32 32s-14.3359 32-32 32h-384c-17.6641 0-32-14.3359-32-32s14.3359-32 32-32z" glyph-name="speech" unicode="&#xe02c;"/><glyph d="M512-64.1602c-20.2881 0-39.3779 7.87012-53.7461 22.1904l-436.512 436.496c-29.5361 29.6797-29.5361 77.9521-.0644531 107.568l159.904 159.872c9.87207 9.87207 25.0244 12.2236 37.4404 5.74316 12.3682-6.46387 19.1201-20.2236 16.6885-33.9678-1.63184-9.15234-2.36816-16.4961-2.36816-23.1201 0-70 56.9756-128.144 127.008-128.144 70.0957 0 121.279 58.1436 121.279 128.144 0 70.0957-51.1836 127.088-121.279 127.088-6.55957 0-13.8711-.751953-23.0234-2.36816-13.8721-2.55957-27.5039 4.32031-33.9678 16.6885-6.46387 12.4004-4.12793 27.5684 5.74414 37.4404l149.088 149.12c28.8799 28.752 78.8154 28.6875 107.567.0634766l109.152-109.216c22.7842 70.8164 89.2803 122.225 167.536 122.225 97.0244 0 175.969-78.9756 175.969-176.031 0-78.2559-51.376-144.752-122.224-167.504l106.032-105.968c29.5996-29.6797 29.5996-77.9521.03125-107.601l-436.448-436.464c-14.4316-14.3838-33.5195-22.2559-53.8076-22.2559zM174.895 564.782l-107.905-107.872c-4.65625-4.68848-4.65625-12.4326.0634766-17.1846l436.368-436.384c6.12793-6.06445 10.9443-6.12891 17.1846.0634766l436.352 436.384c4.68848 4.71973 4.68848 12.3994-.03125 17.1514l-153.904 153.808c-9.63184 9.63184-12.1279 24.3203-6.19238 36.5605s18.8477 19.5039 32.5273 17.8398l4.87988-.624023c2.68848-.368164 5.37695-.816406 8.19336-.816406 61.7441 0 111.968 50.1924 111.968 111.904 0 61.7764-50.2236 112.032-111.968 112.032-61.7119 0-111.936-50.2559-111.936-112.032 0-2.55957.400391-5.05566.751953-7.56738l.688477-5.71191c1.44043-13.5039-5.77539-26.4316-18.0312-32.2881-12.1602-5.80762-26.8164-3.31152-36.4004 6.25684l-156.944 157.024c-6.12793 6.06445-10.9443 6.12891-17.1846-.0634766l-97.1201-97.1201c83.2803-20.624 139.376-95.9678 139.376-185.536 0-105.312-79.9199-192.128-185.296-192.128-89.5361.015625-164.848 63.0879-185.439 146.304z" glyph-name="puzzle" unicode="&#xe02d;"/><glyph d="M952.736 705.072h-120.719v254.448h-640.032v-254.448h-120.72c-39.3125 0-71.3125-32-71.3125-71.3438v-433.888c0-39.3438 32-71.3438 71.3115-71.3438h120.72v-192.016h640.032v192.016h120.72c39.3125 0 71.3125 32 71.3125 71.3438v433.888c0 39.3438-32 71.3438-71.3125 71.3438zM255.985 896.513h512.032v-191.44h-512.032v191.44zM768.018.480469h-512.032v352.4h512.032v-352.4zM960.05 199.841c0-4.08008-3.28027-7.34375-7.3125-7.34375h-120.72v224.384h-640.032v-224.368h-120.72c-4.03223 0-7.3125 3.26367-7.3125 7.34375v433.872c0 4.06445 3.28027 7.34473 7.3125 7.34473h881.472c4.03223 0 7.3125-3.28027 7.3125-7.34473zM832.002 576.561h-32c-17.6641 0-32-14.3359-32-32s14.3359-32 32-32h32c17.6641 0 32 14.3359 32 32s-14.3359 32-32 32z" glyph-name="printer" unicode="&#xe02e;"/><glyph d="M1024 639.504c0 35.3438-28.6543 64-63.998 64h-109.248c28.2725 27.8877 46.3682 64.4473 46.3682 109.472 0 55.4404-31.8398 115.664-121.216 115.664-117.6 0-215.84-125.216-262-195.408-46.1924 70.1758-147.44 195.392-265.024 195.392-89.376 0-121.216-60.2236-121.216-115.664 0-45.0078 18.5918-81.584 47.4395-109.472h-111.104c-35.3438 0-64-28.6562-64-64v-191.568h64.5596v-416.56c0-35.3438 28.6562-64 64-64h767.68c35.3438 0 64 28.6562 64 64v416.576h63.7598v191.568zM775.906 864.624c39.5684 0 57.2158-16.625 57.2158-51.665 0-71.0879-79.3438-109.439-153.968-109.439h-108.336c45.4717 67.5361 125.504 161.104 205.088 161.104zM248.881 864.623c79.5996 0 162.655-93.5684 208.127-161.088h-108.368c-74.624 0-156.976 39.3438-156.976 110.432 0 35.0244 17.6484 50.6562 57.217 50.656zM960.001 511.936h-416v127.568h416v-127.568zM64.001 639.504h416v-127.568h-416zM128.561 447.936h351.44v-416.56h-351.44zM896.257 31.376h-352.256v416.56h352.256v-416.56z" glyph-name="present" unicode="&#xe02f;"/><glyph d="M33.7598 896.24h448c17.6641 0 32 14.3359 32 32s-14.3359 32-32 32h-448c-17.6641 0-32-14.3359-32-32s14.3203-32 32-32zM33.7598 704.24h448c17.6641 0 32 14.3359 32 32s-14.3359 32-32 32h-448c-17.6641 0-32-14.3359-32-32s14.3203-32 32-32zM513.76 544.24c0 17.6641-14.3359 32-32 32h-448c-17.6641 0-32-14.3359-32-32s14.3359-32 32-32h448c17.6641 0 32 14.3359 32 32zM1012.88 635.456l-312.912 312.898c-9.9043 9.91992-24.6562 11.8398-36.5918 6.01562-12.5439-4.33594-21.6162-16.1123-21.6162-30.1279v-708.4c-33.9199 25.1357-78.4316 40.5273-127.376 40.5273-106.064 0-192.097-71.7764-192.097-160.288 0-88.5283 86.0322-160.336 192.097-160.336 106.128 0 192.096 71.8076 192.096 160.336 0 4.01562-.368164 7.93555-.719727 11.8711v744.096l261.84-261.856c12.4961-12.4961 32.7686-12.4961 45.2646 0 12.496 12.4961 12.4961 32.7686.015625 45.2646zM641.76 92.9785c-2.30371-44.4961-54.1914-92.8145-128.127-92.8145-75.6484 0-128.353 50.5596-128.353 95.8711 0 45.3438 52.7041 95.8398 128.353 95.8398 73.9355 0 125.823-48.2559 128.127-92.7842v-6.1123.0001z" glyph-name="playlist" unicode="&#xe030;"/><glyph d="M1014.85 580.336l-368.158 370.015c-7.93555 7.96777-19.376 11.2158-30.3203 8.49609-10.9121-2.65625-19.6006-10.8486-22.9443-21.5684-22.1602-71.3115-24.7197-135.84-7.79199-194.688-1.55176-1.07227-3.04004-2.24023-4.41602-3.61621l-171.104-171.072c-55.2002 25.5996-114.544 39.4561-173.696 39.4561-37.5996 0-74.4639-5.56836-109.567-16.4648-10.6885-3.34375-18.8809-12-21.5693-22.8477-2.68848-10.8799.463867-22.3359 8.36816-30.2881l218.976-220.384-306.16-311.04-26.624-70.1279 64.3682 24.8799 313.36 311.04 221.824-223.264c6.06445-6.12793 14.2881-9.43945 22.6885-9.43945 2.52832 0 5.08789.320312 7.63184.912109 10.9121 2.68848 19.6006 10.8809 22.9443 21.6006 28.9756 93.2324 20.4795 193.345-20.3369 283.121l174.704 174.736c.624023.624023 1.05566 1.32812 1.63184 2 26.3682-7.53613 53.6963-11.5684 82.0479-11.5684 35.2158 0 72.5596 5.05566 110.976 17.0078 10.6885 3.3125 18.8809 12 21.5693 22.8477 2.65625 10.8477-.496094 22.3037-8.40039 30.2559zM603.153 135.854l-402.783 405.407c103.376 12.0645 214.848-29.5996 295.567-110.319 80.3203-80.3037 119.504-191.296 107.216-295.088zM600.227 403.454c-16.832 25.7275-36.4648 50.1758-59.0244 72.752-22.4639 22.4639-47.0078 42.2559-72.96 59.3281l144.128 144.096c14.7041-25.5684 33.6641-50 57.0078-73.3281 23.8564-23.8398 49.0889-43.1357 75.6006-58.0635zM714.626 651.55c-61.5361 61.5361-85.2471 130.129-72.6875 212.881l286.912-288.4c-82.6562-11.8564-151.601 12.8955-214.225 75.519z" glyph-name="pin" unicode="&#xe031;"/><glyph d="M960 880.096h-896c-35.1836 0-64-28.8164-64-64v-736.192c0-35.1836 28.8164-64 64-64h896c35.1836 0 64 28.8164 64 64v736.192c0 35.1836-28.8164 64-64 64zM960 79.9033l-895.999.00097656v188.56l256.848 248.912 264.784-264.496c10.9121-13.248 30.3359-11.5684 44.1279-1.12012l116.88 105.808 210.8-216.384c.799805-.799805 1.69531-1.3916 2.55957-2.08008v-59.2002zM960.001 230.208l-188.031 192.416c-11.4082 11.248-29.2803 12.4004-41.9365 2.75195l-120.56-105.024-264.944 262.08c-5.66406 6.84766-13.8398 11.0234-22.6875 11.5996-8.81641.320312-17.5049-2.55957-23.9688-8.62402l-233.872-227.6v458.288h896v-585.888zM736.002 559.872c35.2803 0 63.8398 28.6084 63.8398 63.8408 0 35.2158-28.5596 63.8242-63.8398 63.8242s-63.8398-28.6084-63.8398-63.8242c0-35.2324 28.5596-63.8408 63.8398-63.8408z" glyph-name="picture" unicode="&#xe032;"/><glyph d="M993.184 824.992l-320.961 133.069-319.44-126.432-321.968 126.368c-2.75195.816406-5.43945 1.12012-7.96777 1.12012-13.1357.0644531-22.8477-9.74316-22.8477-24.4951v-830c0-17.5684 13.8721-35.8721 30.8164-40.5605l322.336-127.184 319.008 129.504 321.024-126.128c2.75195-.751953 5.44043-1.12012 7.96875-1.12012 13.1201 0 22.8477 9.74414 22.8477 24.4961v820.736c0 17.5684-13.8721 35.8887-30.8164 40.625zM383.999 778.861l256 100.304v-761.504l-256-101.184v762.384zM63.999 873.309l256-94.5771v-761.76l-256 104.272v752.064zM959.999 21.9951l-256 96.3838v759.824l256-110.384v-745.824.0002z" glyph-name="map" unicode="&#xe033;"/><glyph d="M21.8398 658.192l475.09-258.72c4.78418-2.5918 10.0322-3.9043 15.3125-3.9043 5.21582 0 10.4316 1.28027 15.1836 3.83984l480.096 258.72c10.4639 5.63184 16.9756 16.624 16.8154 28.5283-.160156 11.9355-6.91211 22.752-17.5039 28.1602l-475.12 241.28c-9.05566 4.5918-19.7441 4.62402-28.8799.0644531l-480.048-241.28c-10.624-5.34375-17.4404-16.1602-17.6328-28.0645s6.25586-22.9443 16.6875-28.624zM517.153 891.713l406.159-206.271-410.976-221.472-406.176 221.184zM1001.34 479.682l-94.9736 48.2246-68.5596-36.9756 80-40.624-410.96-221.456-406.192 221.184 85.3115 42.8799-68.3682 37.248-100.32-50.4004c-10.624-5.34375-17.4404-16.1602-17.6328-28.0645s6.25586-22.9443 16.6875-28.624l475.088-258.72c4.78418-2.5918 10.0322-3.90332 15.3125-3.90332 5.21582 0 10.4316 1.28027 15.1836 3.83984l480.096 258.72c10.4639 5.63184 16.9756 16.624 16.8154 28.5283-.143555 11.9355-6.89551 22.752-17.4873 28.1436zM1001.35 255.683l-89.9658 44.2236-68.5596-36.9756 75.0078-36.624-410.976-221.456-406.192 221.184 79.3115 35.8721-68.3682 37.248-94.3203-43.4082c-10.624-5.34375-17.4404-16.1602-17.6328-28.0645s6.25586-22.9443 16.6875-28.624l475.088-258.72c4.78418-2.5918 10.0322-3.90332 15.3125-3.90332 5.21582 0 10.4316 1.28027 15.1836 3.83984l480.096 258.72c10.4639 5.63184 16.9756 16.624 16.8154 28.5283-.143555 11.9521-6.89551 22.7686-17.4873 28.1602z" glyph-name="layers" unicode="&#xe034;"/><glyph d="M1022.74 17.3604l-83.4072 503.777c-7.44043 65.3115-66.9766 118.432-132.721 118.432h-70.6562v85.2803c0 130.16-92.8477 236.032-222.976 236.032-130.096 0-224.943-105.872-224.943-236.032v-85.2803h-76.6719c-65.7441 0-125.28-53.1201-132.528-117.056l-77.2803-504.16c-2.97559-26.5596 2.22461-47.5039 15.4082-62.2881 12.4316-13.9043 30.5273-20.9766 53.7432-20.9766h873.568c32.9121 0 51.7764 13.2158 61.8408 24.3203 9.21582 10.208 19.6475 28.1436 16.623 57.9512zM352.049 724.865c0 94.8477 66.127 172.031 160.943 172.031 94.816 0 158.977-77.1836 158.977-172.031v-85.2803h-319.92zM947.168-.446289l-872.498-.449219c-5.50391 0-11.0078 2.94434-9.71191 10.6885l77.248 504.096c3.83984 33.4404 35.5039 61.6807 69.1523 61.6807h76.6885v-72.9277c-19.0723-11.0723-32.0479-31.4883-32.0479-55.1367 0-35.3438 28.6562-64 64-64s64 28.6562 64 64c0 23.6162-12.9277 44-31.9521 55.0879v72.9922h319.904v-72.9922c-19.0078-11.0879-31.9521-31.4883-31.9521-55.0879 0-35.3438 28.6562-64 64-64s64 28.6562 64 64c0 23.6484-12.9756 44.0645-32.0479 55.1523v72.9277h70.6562c33.6641 0 65.3125-28.2559 69.4082-63.4395l83.3438-503.28c.400391-4.0957-2.81543-9.31152-12.1914-9.31152z" glyph-name="handbag" unicode="&#xe035;"/><glyph d="M929.504 545.584c0 168.784-88.9775 321.873-237.97 409.569-15.248 9.00781-34.8799 3.87207-43.8076-11.376-8.94434-15.2158-3.87207-34.8477 11.376-43.8076 129.248-76.0322 206.4-208.528 206.4-354.368 0-242.368-175.936-418.288-418.319-418.288-54.1924 0-106.784 10.1602-156.32 30.1602-16.3682 6.65625-35.0566-1.2793-41.665-17.6631-6.62402-16.4004 1.28027-35.0566 17.6641-41.665 57.2158-23.1201 117.872-34.8477 180.32-34.8477.192383 0 .384766.015625.577148.015625v-63.0078h-92.9277c-18.4639 0-33.4395-14.3037-33.4395-31.9521s14.9756-31.9365 33.4395-31.9365h252.848c18.4639 0 33.4395 14.3037 33.4395 31.9355 0 17.6641-14.9756 31.9521-33.4395 31.9521h-96.3838v66.7998c245.808 28.5596 418.208 220.911 418.208 478.479zM799.374 542.705c0 194.656-157.744 353.408-352.4 353.408-194.688 0-352.465-158.752-352.465-353.408s157.776-351.44 352.465-351.44c194.656 0 352.4 156.784 352.4 351.44zM158.494 542.705c0 159.024 129.408 289.408 288.464 289.408 159.024 0 288.4-130.368 288.4-289.408s-129.376-287.44-288.4-287.44c-159.056 0-288.464 128.4-288.464 287.44z" glyph-name="globe-alt" unicode="&#xe036;"/><glyph d="M1025.02 448c0 272.016-213.663 495.104-482.319 511.023-5.53613.608398-11.0879 1.00879-16.7197 1.00879-1.66406 0-3.32812-.175781-4.99219-.223633-2.99219.0478516-5.96777.223633-8.99219.223633-282.88 0-513.023-229.696-513.023-512.032s230.144-512.032 513.023-512.032c3.02441 0 6 .175781 9.00781.240234 1.66406-.0644531 3.32812-.240234 4.99219-.240234 5.63184 0 11.1836.400391 16.7197 1.00879 268.64 15.9199 482.304 238.976 482.303 511.023zM929.569 283.168c-17.6318 5.12012-61.9209 16.2393-140.064 25.3916 6.46387 44.1924 10 90.8965 10 139.44 0 38.2559-2.20801 75.3438-6.28809 111.008 99.0078 11.8242 142.384 26.7207 145.296 27.7451l-11.9199 33.584c22.2402-53.0879 34.5605-111.296 34.5605-172.336 0-58.1924-11.2803-113.761-31.584-164.833zM285.488 447.999c0 35.8076 2.36914 70.7695 6.70508 104.401 51.8877-4.08008 113.936-7.08789 186.863-7.79199v-222.064c-70.9922-.688477-131.664-3.56836-182.688-7.47266-7.04004 42.1924-10.8799 86.8799-10.8801 132.928zM542.945 891.777c78.4639-22.7363 145.648-131.695 175.744-276.111-48.3682-3.85645-106.624-6.67285-175.744-7.3291v283.44zM479.059 890.994v-282.624c-68.3682.688477-126.88 3.47266-176.063 7.23242 30.7041 142.608 98.4316 250.752 176.063 275.392zM479.059 258.771l.00097656-253.743c-72.4004 22.9756-136.192 118.575-169.36 247.023 47.7598 3.50391 104.096 6.06348 169.359 6.71973zM542.947 4.22754l-.00097656 254.561c65.9521-.624023 122.064-3.28027 169.217-6.92871-32.6084-130.128-96-226.416-169.216-247.632zM542.946 322.548l.00097656 222.032c73.3115.688477 134.991 3.77637 186.191 8 4.20801-33.6963 6.49609-68.7041 6.49609-104.592 0-46.1279-3.71191-90.8643-10.5283-133.12-50.416 4.08008-110.8 7.00781-182.16 7.67969zM914.804 646.068c-9.66406-3.00781-50.0635-14.4805-131.023-24.0322-18.0479 95.9521-50.6719 177.968-93.1201 237.168 97.5361-42.3838 177.136-118.304 224.144-213.136zM358.82 869.411c-52.208-59.9521-94.832-146.161-118.096-248.113-72.4805 7.85645-115.921 17.0889-133.312 21.2812 50.7197 104.64 141.04 186.752 251.408 226.832zM83.6367 582.818c12.3203-3.34375 58.9131-14.9414 145.553-24.5254-4.95996-35.4404-7.67969-72.3047-7.67969-110.305 0-48.2725 4.36816-94.7207 12.2402-138.688-74.4004-8.03223-120.16-17.6484-140.688-22.6084-19.4404 50.0957-30.208 104.447-30.208 161.312 0 46.96 7.31152 92.2559 20.7832 134.815zM121.094 227.652c23.2637 4.94434 64.9121 12.4639 126.592 18.9277 24.2881-89.7119 63.792-165.616 111.136-219.968-101.12 36.7197-185.296 108.752-237.728 201.04v.0003zM690.662 36.8203c38.2236 53.2637 68.4795 125.024 87.2959 208.801 63.4082-7.28027 103.216-15.792 123.296-20.8643-48.0156-83.0723-121.855-149.393-210.592-187.937z" glyph-name="globe" unicode="&#xe037;"/><glyph d="M224 848h-192c-17.6641 0-32-14.3359-32-32v-192c0-17.6641 14.3359-32 32-32s32 14.3359 32 32v160h160c17.6641 0 32 14.3359 32 32s-14.3359 32-32 32zM992 304c-17.6641 0-32-14.3359-32-32v-160h-160c-17.6641 0-32-14.3359-32-32s14.3359-32 32-32h192c17.6641 0 32 14.3359 32 32v192c0 17.6641-14.3359 32-32 32zM224 112h-160v160c0 17.6641-14.3359 32-32 32s-32-14.3359-32-32v-192c0-17.6641 14.3359-32 32-32h192c17.6641 0 32 14.3359 32 32 0 17.6641-14.3359 32-32 32zM992 848h-192c-17.6641 0-32-14.3359-32-32s14.3359-32 32-32h160v-160c0-17.6641 14.3359-32 32-32s32 14.3359 32 32v192c0 17.6641-14.3359 32-32 32z" glyph-name="frame" unicode="&#xe038;"/><glyph d="M960.16 752h-480l-96 96h-320c-35.3438 0-64-28.6562-64-64v-160h-.303711v-64h.303711v-448c0-35.3438 28.6562-64 64-64h896c35.3438 0 64 28.6562 64 64v576c0 35.3438-28.6562 64-64 64zM64.1445 784h290.751l78.624-77.248 20.1123-18.752h506.528v-64h-896v160h-.015625.000325zM64.1436 112v448h896v-448h-896z" glyph-name="folder-alt" unicode="&#xe039;"/><glyph d="M800 687.712h64c17.6641 0 32 14.3359 32 32v32c0 17.6641-14.3359 32-32 32h-64c-17.6641 0-32-14.3359-32-32v-32c0-17.6641 14.3359-32 32-32zM800 495.712h64c17.6641 0 32 14.3359 32 32v32c0 17.6641-14.3359 32-32 32h-64c-17.6641 0-32-14.3359-32-32v-32c0-17.6641 14.3359-32 32-32zM800 303.712h64c17.6641 0 32 14.3359 32 32v32c0 17.6641-14.3359 32-32 32h-64c-17.6641 0-32-14.3359-32-32v-32c0-17.6641 14.3359-32 32-32zM800 111.712h64c17.6641 0 32 14.3359 32 32v32c0 17.6641-14.3359 32-32 32h-64c-17.6641 0-32-14.3359-32-32v-32c0-17.6641 14.3359-32 32-32zM160 687.712h64c17.6641 0 32 14.3359 32 32v32c0 17.6641-14.3359 32-32 32h-64c-17.6641 0-32-14.3359-32-32v-32c0-17.6641 14.3359-32 32-32zM160 495.712h64c17.6641 0 32 14.3359 32 32v32c0 17.6641-14.3359 32-32 32h-64c-17.6641 0-32-14.3359-32-32v-32c0-17.6641 14.3359-32 32-32zM160 303.712h64c17.6641 0 32 14.3359 32 32v32c0 17.6641-14.3359 32-32 32h-64c-17.6641 0-32-14.3359-32-32v-32c0-17.6641 14.3359-32 32-32zM160 111.712h64c17.6641 0 32 14.3359 32 32v32c0 17.6641-14.3359 32-32 32h-64c-17.6641 0-32-14.3359-32-32v-32c0-17.6641 14.3359-32 32-32zM960 944.096h-896c-35.1836 0-64-28.8164-64-64v-864.192c0-35.1836 28.8164-64 64-64h896c35.1836 0 64 28.8164 64 64v864.192c0 35.1836-28.8164 64-64 64zM960 15.9033h-896v864.192h896v-864.192z" glyph-name="film" unicode="&#xe03a;"/><glyph d="M101.872 629.744c-18.1279 0-32.7686-14.6562-32.7686-32.7686 0-18.0957 14.6396-32.7676 32.7676-32.7676 303.008 0 525.344-224.368 525.344-527.36 0-18.0957 14.6562-32.752 32.7686-32.752s32.7686 14.6562 32.7686 32.752c0 340.368-250.528 592.896-590.88 592.896zM102.159 957.376c-18.1123 0-32.7695-14.6553-32.7695-32.7676s14.6562-32.7686 32.7686-32.7686c470.176 0 852.672-382.496 852.672-852.656 0-18.0957 14.6562-32.752 32.7686-32.752s32.7686 14.6562 32.7686 32.752c-.015625 506.288-411.92 918.192-918.208 918.192zM184.015 300.401c-99.4717 0-180.369-81.1191-180.369-180.879 0-99.7119 80.9121-180.912 180.368-180.912 99.4559 0 180.4 81.1836 180.4 180.911 0 99.7598-80.9277 180.88-180.399 180.88zM184.014 1.9707c-64.6084 0-117.168 52.752-117.168 117.568s52.5596 117.536 117.168 117.536c64.624 0 117.216-52.7197 117.216-117.536s-52.5918-117.568-117.216-117.568z" glyph-name="feed" unicode="&#xe03b;"/><glyph d="M1023.84 387.456c.0957031 21.0557-3.2168 100.496-5.74512 123.216-29.1201 260.752-240.752 450-503.184 450-273.344 0-494.815-210.624-509.84-489.904-.320312-6.0957-2.56055-49.3438-2.7207-75.0879l-.0800781-14.3203c-1.31152-5.91992-2.11133-12.0322-2.11133-18.3359v-214.656c0-46.8799 38.1279-85.0078 85.0078-85.0078h86.2881c46.8799 0 85.0234 38.1279 85.0234 85.0078v214.64c0 46.8799-38.1602 85.0078-85.0244 85.0078h-86.3037c-5.8877 0-11.6318-.608398-17.1836-1.74414.480469 10.3838.912109 18.5762 1.02441 21.0566 13.168 244.784 207.136 429.344 445.92 429.344 229.28 0 414.128-165.344 439.568-393.12 1.07227-9.50391 2.44824-33.6641 3.55176-57.9199-6.19238 1.44043-12.5762 2.38477-19.2002 2.38477h-85.2803c-46.8799 0-85.0078-38.1279-85.0078-85.0078v-213.664c0-32.3682 18.4004-60.2559 45.0889-74.5918l-205.44-80.6562v5.21582c0 17.6641-14.3359 32-32 32h-96c-17.6641 0-32-14.3359-32-32v-32c0-17.6641 14.3359-32 32-32h96c.272461 0 .512695.0800781.785156.0800781l57.3604.223633 329.552 129.376c4.32031 1.79199 7.98438 4.46387 10.9922 7.66406 28.8477 13.6162 48.9912 42.7363 48.9912 76.6885v213.664c0 5.21582-.639648 10.2881-1.55176 15.2324.879883 2.94434 1.50391 6 1.51953 9.21582zM85.1514 384.016h86.2891c11.5996 0 21.0234-9.4082 21.0234-21.0078v-214.656c0-11.5996-9.44043-21.0078-21.0244-21.0078h-86.2881c-11.5996 0-21.0078 9.4082-21.0078 21.0078v214.656c.015625 11.5996 9.42383 21.0078 21.0078 21.0078zM832.528 363.008c0 11.5996 9.40918 21.0078 21.0088 21.0078h85.2803c11.5996 0 21.0234-9.4082 21.0234-21.0078v-213.664c0-11.5996-9.44043-21.0078-21.0244-21.0078h-85.2803c-11.5996 0-21.0078 9.4082-21.0078 21.0078v213.664z" glyph-name="earphones-alt" unicode="&#xe03c;"/><glyph d="M1023.84 355.44c.0957031 21.0557-3.21582 100.497-5.74414 123.217-29.1201 260.752-240.752 450-503.184 450-273.344 0-494.815-210.624-509.84-489.904-.320312-6.0957-2.56055-49.3438-2.7207-75.0879l-.0800781-14.3203c-1.31152-5.91992-2.11133-12.0322-2.11133-18.3359v-278.656c0-46.8799 38.1279-85.0078 85.0078-85.0078h86.2881c46.8799 0 85.0234 38.1279 85.0234 85.0078v278.64c0 46.8799-38.1602 85.0078-85.0244 85.0078h-86.3203c-5.8877 0-11.6318-.608398-17.1836-1.74414.480469 10.3838.912109 18.5918 1.02441 21.0557 13.1836 244.784 207.136 429.344 445.936 429.344 229.28 0 414.128-165.344 439.568-393.12 1.08789-9.50391 2.46387-33.6641 3.56836-57.9199-6.24023 1.44043-12.6084 2.38477-19.2324 2.38477h-85.2803c-46.8799 0-85.0078-38.1279-85.0078-85.0078v-277.664c0-46.8955 38.1279-85.0078 85.0078-85.0078h85.2803c46.8799 0 85.0234 38.1279 85.0234 85.0078v277.664c0 5.21582-.639648 10.2881-1.56738 15.2158.927734 2.94434 1.53613 6.0166 1.56836 9.23242zM85.1357 352.001h86.2881c11.5996 0 21.0234-9.4082 21.0234-21.0078v-278.656c0-11.6162-9.44043-21.0078-21.0244-21.0078h-86.2881c-11.5996 0-21.0078 9.4082-21.0078 21.0078v278.656c.0322266 11.5996 9.44043 21.0078 21.0088 21.0078zM959.84 53.3447c0-11.5996-9.43945-21.0078-21.0234-21.0078h-85.2803c-11.5996 0-21.0078 9.4082-21.0078 21.0078v277.648c0 11.5996 9.4082 21.0078 21.0078 21.0078h85.2803c11.5996 0 21.0234-9.4082 21.0234-21.0078v-277.648z" glyph-name="earphones" unicode="&#xe03d;"/><glyph d="M510.4-62.7041c-193.312 0-350.592 155.12-350.592 345.776 0 222.688 311.632 644.848 324.912 662.72 6 8.06445 15.4082 12.8486 25.4727 12.9131 11.1836.0957031 19.5674-4.59277 25.6631-12.5605 13.4082-17.5361 328.336-432.225 328.336-663.057 0-190.672-158.72-345.792-353.792-345.792zM510.752 872.304c-74.4004-105.664-286.943-422.064-286.943-589.217 0-155.376 128.56-281.776 286.592-281.776 159.776 0 289.776 126.4 289.776 281.776.015625 173.36-214.145 485.024-289.425 589.217z" glyph-name="drop" unicode="&#xe03e;"/><glyph d="M1022.98 450.016l-117.505 407.089c-3.83984 13.8721-16.4639 23.4717-30.8477 23.4717h-735.344c-14.4961 0-27.1846-9.74414-30.9443-23.7764l-107.392-386.352c-1.98438-7.50391-1.00879-15.0078 1.99902-21.5361-1.72754-5.79199-2.94336-11.8242-2.94336-18.1758v-351.312c0-35.3438 28.6562-64 64-64h896c35.3438 0 64 28.6562 64 64v351.312c0 1.71191-.368164 3.32812-.496094 5.00781.832031 4.5918.816406 9.43945-.526566 14.2718zM163.902 816.576l686.369.00097656 93.1201-321.84h-298.336c-1.44043-76.8164-55.9043-129.681-133.057-129.681s-130.624 52.8799-132.064 129.68h-305.776zM959.999 79.4248h-895.998v351.312h263.12c27.9355-80.4316 95.7754-129.68 184.879-129.68s157.936 49.248 185.871 129.68h262.128v-351.312z" glyph-name="drawar" unicode="&#xe03f;"/><glyph d="M768 960h-352c-35.3438 0-64-28.6562-64-64h352v-256h256v-512h-224v-64h224c35.3438 0 64 28.6562 64 64v575.984zM768 704v165.504l165.472-165.504h-165.472zM64 832c-35.3438 0-64-28.6562-64-64v-768c0-35.3438 28.6562-64 64-64h544c35.3438 0 64 28.6562 64 64v575.984l-256 256.016h-352zM608 0h-544v768h288v-256h256v-512zM416 576v165.504l165.472-165.504h-165.472z" glyph-name="docs" unicode="&#xe040;"/><glyph d="M1017.06 773.936l-99.6963 111.343c-6.06445 6.84766-14.7842 10.752-23.9365 10.752h-350.256v33.9678c0 16.5596-14.3359 30-32 30s-32-13.4404-32-30v-33.9678h-255.808c-17.6797 0-32-14.3203-32-32v-223.664c0-17.6797 14.3203-32 32-32h255.808v-64.0957h-348.592c-9.15234 0-17.8721-3.9043-23.9365-10.752l-99.6797-113.312c-10.752-12.1279-10.752-30.3682 0-42.4961l99.6797-112.288c6.1123-6.84766 14.7842-9.74414 23.9365-9.74414h348.592v-289.68c0-16.5596 14.3359-30 32-30 17.6641 0 32 13.4404 32 30v289.68h256.464c17.6797 0 32 14.3203 32 32v224.608c0 17.6797-14.3203 32-32 32h-256.464v64.0957h350.256c9.15234 0 17.8721 3.9043 23.9365 10.752l99.6963 112.32c10.7363 12.1123 10.7363 30.3525 0 42.4805v.00074zM767.647 319.679h-622.688l-71.2803 79.2803 71.2803 81.3115h622.688v-160.592zM879.039 672.367h-623.68v159.664h623.68l71.2803-79.3438z" glyph-name="directions" unicode="&#xe041;"/><glyph d="M966.912 661.84l-179.121 192c-6.08008 6.48047-14.5439 10.1602-23.4238 10.1602h-267.12l-1.00781 66c0 16.5596-14.3359 30-32 30s-30-13.4404-30-30l-.975586-66h-352.768c-17.6797 0-32-14.3203-32-32v-384c0-17.6797 14.3203-32 32-32h352.336v-450c0-16.5596 14.3359-30 32-30s32 13.4404 32 30v450h267.536c8.87988 0 17.3438 3.67969 23.4082 10.1602l179.12 192c11.4717 12.3037 11.4717 31.376.015996 43.6796zM750.463 480h-637.968v320h637.968l149.28-160z" glyph-name="direction" unicode="&#xe042;"/><glyph d="M1018.72 664.528l-139.872 267.442c-8.16016 15.5996-29.2637 28.3516-46.8477 28.3516h-321.936c-.351562.015625-.703125.111328-1.05469.126953-.288086 0-.560547-.112305-.848633-.12793h-316.16c-17.5996 0-38.752-12.7197-47.0244-28.2559l-139.504-262.288c-8.28809-15.5361-6.62402-39.9365 3.63184-54.2568l480.016-669.152c5.15234-7.18359 12-10.8154 18.832-10.8154 6.78418 0 13.584 3.53613 18.7676 10.5918l487.904 664.256c10.3838 14.1924 12.2559 38.5439 4.09598 54.1277zM942.367 672.371h-171.456l68.6562 196.608zM575.343 896.323h205.968l-63.8877-182.928zM668.238 672.371h-297.647l140.672 202.096zM313.887 702.915l-64.1768 193.408h198.816zM680.75 608.371l-172.032-492.544-163.456 492.544h335.488zM436.926 128.915l-343.936 479.456h184.832zM748.542 608.371h185.168l-352.976-480.56zM188.478 877.587l68.0957-205.216h-177.248z" glyph-name="diamond" unicode="&#xe043;"/><glyph d="M832.56 544.208c-8.33594 0-35.2021.160156-64.3057.368164l.112305 63.9678c0 35.3438-28.6562 64-64 64l-640.496.160156c-35.3438 0-64-28.6562-64-64v-480.944c0-106.032 85.9678-192 192-192h384.656c106.032 0 191.008 85.9678 191.008 192l.0644531 32.8477c29.0244-.223633 58.6084-.399414 64.9766-.399414 105.776 0 191.568 85.04 191.568 191.072-.015625 106.048-85.8076 192.928-191.584 192.928zM703.533 127.76c0-70.5918-56.3994-128-127.008-128h-384.656c-70.5918 0-128 57.4082-128 128l-.0957031 480.944 640.592-.192383zM832.559 223.279c-6.35156 0-35.8877.191406-64.8633.399414l.448242 256.816c29.1201-.208008 56.0479-.368164 64.3994-.368164 73.1201 0 128.624-54.5439 128.624-127.84s-55.4883-129.008-128.608-129.008zM575.87 736.238c17.6641 0 32 14.3359 32 32v160c0 17.6641-14.3359 32-32 32s-32-14.3359-32-32v-160c0-17.6797 14.3359-32 32-32zM191.87 736.238c17.6641 0 32 14.3359 32 32v160c0 17.6641-14.3359 32-32 32s-32-14.3359-32-32v-160c0-17.6797 14.3359-32 32-32zM383.87 736.238c17.6641 0 32 14.3359 32 32v160c0 17.6641-14.3359 32-32 32s-32-14.3359-32-32v-160c0-17.6797 14.3359-32 32-32z" glyph-name="cup" unicode="&#xe044;"/><glyph d="M733.184 679.728l-313.15-134.64c-5.66406-2.87988-10.2559-7.47168-13.1514-13.1514l-143.456-289.216c-5.87207-11.5361-3.74414-25.5361 5.31152-34.7842 5.80762-5.9043 13.6318-9.02441 21.5361-9.02441 4.43164 0 8.94336.975586 13.1191 3.00781l305.728 126.976c5.59961 2.68848 10.2236 7.05664 13.2158 12.4971l150.88 296.896c6.43164 11.5996 4.52734 26.0312-4.65625 35.5674-9.21582 9.53613-23.584 11.8721-35.376 5.87207zM357.857 295.184l87.0078 177.681 87.8721-109.984zM584.705 400.384l-88.7998 111.152 176.784 69.7598zM512.001 960c-282.768 0-512-229.232-512-512 0-282.784 229.232-512 512-512 282.784 0 512 229.216 512 512 0 282.768-229.216 512-512 512zM512.001-1.00781c-247.024 0-448 201.984-448 449.009 0 247.025 200.976 448 448 448s448-200.976 448-448-200.976-449.009-448-449.009z" glyph-name="compass" unicode="&#xe045;"/><glyph d="M1000.35 188.384c-15.6641 11.0078-187.059 124.974-208.066 137.806-9.15234 5.59961-20.3203 8.33594-32.4639 8.33594-15.6641 0-33.0078-4.55957-49.9355-13.4717-16.4961-8.68848-66.4639-37.1201-90.9121-51.0879-21.5361 15.1201-72.1279 53.8721-151.84 133.664-79.2158 79.1836-118.319 130.191-133.535 151.84 13.9355 24.4316 42.3359 74.3994 50.9756 90.8477 16.3682 31.0078 18.2246 61.9678 4.94434 82.8477-12.4639 19.6797-125.968 191.808-137.68 208-11.0244 15.2803-30.8164 23.5361-52.2881 23.5361-16.9443 0-34.9121-5.12012-50.4961-15.9678-1.50391-1.07227-152.096-110.256-150.096-172.352 5.55176-174.432 175.056-379.424 316.271-520.688 141.215-141.264 346.224-310.815 521.344-316.399h1.44043c61.3115 0 169.088 148.688 170.128 150.16 28.2725 40.4004 17.9688 84.8809-7.79067 102.929zM956.141 122.733c-40.5918-56.2236-98.2246-114.945-120.784-123.346-120.032 5.63184-288.464 111.12-474.88 297.568-186.4 186.464-291.872 354.704-297.44 474.336 8.0957 22.624 66.8154 80.624 122.527 120.912 4.12793 2.84766 9.21582 4.49609 13.9678 4.49609 1.05566 0 1.93555-.0957031 2.62402-.223633 18-26.1602 114.624-172.433 132.16-199.776.0644531-2.87988-.911133-10.1914-6.39941-20.623-5.83984-11.1201-24.0322-43.5361-49.9043-88.8799l-20.1279-35.2803 23.3438-33.248c17.4082-24.7197 58.8164-78.4639 140.624-160.288 82.1602-82.1924 135.712-123.473 160.336-140.784l33.248-23.3438 35.2803 20.1602c34.1924 19.5361 75.5039 42.9443 88.9443 50 10.7842 5.67969 18.1602 6.12793 20.1602 6.12793.320312 0 .592773 0 .816406-.0322266 24.4961-15.376 173.937-114.592 200.32-132.688.431641-2.55957.03125-8.12793-4.81641-15.0879zM683.899 577.724l275.246 273.572-.879883-155.056c-.288086-12.9443 9.96777-24.1924 22.9121-23.8887l16.416.015625c12.96.320312 23.6484 8 23.9209 20.9277l.65625 231.008c0 .223633-.864258.383789-.864258.607422l1.26367 11.7119c.12793 6.49609-1.37598 12.2881-5.59961 16.4316-4.12793 4.17578-9.93555 6.71973-16.3838 6.54395l-11.6963-.272461c-.223633 0-.399414-.0957031-.655273-.12793l-229.472 1.02441c-12.9277-.288086-23.6162-10.9766-23.9199-23.9209l-.0322266-16.416c1.96777-15.2324 13.9355-24.1602 26.8799-23.8721l151.248-.400391-274.288-272.624c-12.4961-12.4961-12.4961-32.7686 0-45.2646 12.4961-12.4805 32.752-12.4805 45.2484.000475z" glyph-name="call-out" unicode="&#xe046;"/><glyph d="M1000.35 188.384c-15.6641 11.0078-187.059 124.974-208.066 137.806-9.15234 5.59961-20.3203 8.33594-32.4639 8.33594-15.6641 0-33.0078-4.55957-49.9355-13.4717-16.4961-8.68848-66.4639-37.1201-90.9121-51.0879-21.5361 15.1201-72.1279 53.8721-151.84 133.664-79.2158 79.1836-118.319 130.191-133.535 151.84 13.9355 24.4316 42.3359 74.3994 50.9756 90.8477 16.3682 31.0078 18.2246 61.9678 4.94434 82.8477-12.4639 19.6797-125.968 191.808-137.68 208-11.0244 15.2803-30.8164 23.5361-52.2881 23.5361-16.9443 0-34.9121-5.12012-50.4961-15.9678-1.50391-1.07227-152.096-110.256-150.096-172.352 5.55176-174.432 175.056-379.424 316.271-520.688 141.215-141.264 346.224-310.815 521.344-316.399h1.44043c61.3115 0 169.088 148.688 170.128 150.16 28.2725 40.4004 17.9688 84.8809-7.79067 102.929zM956.141 122.733c-40.5918-56.2236-98.2246-114.945-120.784-123.346-120.032 5.63184-288.464 111.12-474.88 297.568-186.4 186.464-291.872 354.704-297.44 474.336 8.0957 22.624 66.8154 80.624 122.527 120.912 4.12793 2.84766 9.21582 4.49609 13.9678 4.49609 1.05566 0 1.93555-.0957031 2.62402-.223633 18-26.1602 114.624-172.433 132.16-199.776.0644531-2.87988-.911133-10.1914-6.39941-20.623-5.83984-11.1201-24.0322-43.5361-49.9043-88.8799l-20.1279-35.2803 23.3438-33.248c17.4082-24.7197 58.8164-78.4639 140.624-160.288 82.1602-82.1924 135.712-123.473 160.336-140.784l33.248-23.3438 35.2803 20.1602c34.1924 19.5361 75.5039 42.9443 88.9443 50 10.7842 5.67969 18.1602 6.12793 20.1602 6.12793.320312 0 .592773 0 .816406-.0322266 24.4961-15.376 173.937-114.592 200.32-132.688.431641-2.55957.03125-8.12793-4.81641-15.0879zM643.836 583.483c4.12793-4.17578 9.9375-6.72168 16.3857-6.5459l11.7119.272461c.223633 0 .383789.0957031.639648.111328l229.504-1.00781c12.9121.303711 23.6162 10.9922 23.9199 23.9365l.015625 16.416c-1.95215 15.2324-13.9365 24.1602-26.8643 23.8721l-151.504.400391 261.952 261.6c12.4961 12.4961 12.4961 32.7686 0 45.2646-12.4961 12.4805-32.752 12.4805-45.248.00097656l-262.672-262.32.879883 154.832c.288086 12.9277-9.96777 24.1914-22.8955 23.8877l-16.416-.015625c-12.96-.320312-23.6641-8.0166-23.9365-20.9443l-.65625-231.008c0-.223633.879883-.383789.879883-.607422l-1.28027-11.7119c-.12793-6.49609 1.3916-12.2725 5.58428-16.4331z" glyph-name="call-in" unicode="&#xe047;"/><glyph d="M961.696 760.448c0-1.05566-.0966797-1.93457-.224609-2.62305-26.1602-18-172.433-114.624-199.776-132.16-2.87988-.0644531-10.1914.911133-20.623 6.39941-11.1201 5.83984-43.5361 24.0322-88.8799 49.9043l-35.2803 20.1279-33.248-23.3438c-24.7197-17.4082-78.4639-58.8164-160.288-140.624-82.1758-82.1602-123.456-135.712-140.768-160.336l-23.3438-33.248 20.1602-35.2803c19.5361-34.1924 42.9443-75.5039 50-88.9443 5.67969-10.7842 6.12793-18.1602 6.12793-20.1602 0-.320312 0-.592773-.0322266-.816406-15.3604-24.4961-114.593-173.937-132.673-200.32-2.55957-.431641-8.12793-.03125-15.0879 4.81641-56.2559 40.6084-114.96 98.2402-123.376 120.8 5.63184 120.032 111.12 288.464 297.568 474.88 186.464 186.4 354.72 291.872 474.352 297.44 22.624-8.0957 80.624-66.8154 120.912-122.527 2.83203-4.12793 4.48047-9.23242 4.48061-13.985zM1023.7 760.449c0 16.9443-5.12109 34.9141-15.9688 50.498-1.05566 1.50391-108.256 152.096-170.336 150.096-174.432-5.55176-379.439-175.056-520.703-316.271-141.232-141.216-310.801-346.224-316.385-521.344v-1.44043c0-61.3115 148.672-169.088 150.144-170.128 40.4004-28.2881 84.8809-17.9678 102.945 7.77637 11.0078 15.6641 124.976 187.056 137.808 208.063 5.59961 9.15234 8.33594 20.3203 8.33594 32.4639 0 15.6641-4.57617 33.0078-13.4727 49.9355-8.6875 16.4961-37.1191 66.4639-51.0869 90.9121 15.1201 21.5361 53.8721 72.1279 133.664 151.84 79.1836 79.2158 130.191 118.319 151.84 133.535 24.4316-13.9355 74.3994-42.3359 90.8477-50.9756 31.0078-16.3682 61.9678-18.2246 82.8477-4.94434 19.6797 12.4639 189.808 125.968 206 137.68 15.2803 11.0557 23.5205 30.8477 23.5201 52.3035z" glyph-name="call-end" unicode="&#xe048;"/><glyph d="M960 960.096h-896c-35.1836 0-64-28.8164-64-64v-896.192c0-35.1836 28.8164-64 64-64h896c35.1836 0 64 28.8164 64 64v896.192c0 35.1836-28.8164 64-64 64zM960-.0966797h-896v896.192h896v-896.192zM224 607.695h64v-64c0-17.6641 14.3359-32 32-32s32 14.3359 32 32v64h64c17.6641 0 32 14.3359 32 32s-14.3359 32-32 32h-64v64c0 17.6641-14.3359 32-32 32s-32-14.3359-32-32v-64h-64c-17.6641 0-32-14.3359-32-32s14.3359-32 32-32zM433.136 368.848c-12.4961 12.4961-32.752 12.4971-45.248.00097656l-67.8877-67.8721-67.8877 67.8721c-12.4961 12.4961-32.752 12.4961-45.2637 0-12.4961-12.4961-12.4961-32.7686 0-45.2646l67.8721-67.8721-67.8721-67.8721c-12.4961-12.4961-12.4961-32.7686 0-45.2646s32.752-12.4961 45.2637 0l67.8877 67.8564 67.8877-67.8721c12.4961-12.4961 32.752-12.4961 45.248 0s12.4961 32.7686 0 45.2646l-67.8721 67.8721 67.8721 67.8721c12.4961 12.5117 12.4961 32.7676 0 45.2793zM608 607.696h192c17.6641 0 32 14.3359 32 32s-14.3359 32-32 32h-192c-17.6641 0-32-14.3359-32-32s14.3359-32 32-32zM608 287.696h192c17.6641 0 32 14.3359 32 32s-14.3359 32-32 32h-192c-17.6641 0-32-14.3359-32-32s14.3359-32 32-32zM608 159.696h192c17.6641 0 32 14.3359 32 32s-14.3359 32-32 32h-192c-17.6641 0-32-14.3359-32-32s14.3359-32 32-32z" glyph-name="calculator" unicode="&#xe049;"/><glyph d="M424.816 280.656c230.944 0 409.902 131.903 407.15 327.631 0 173.184-183.216 311.632-414.16 311.632-230.976 0-418.159-138.448-418.159-311.632 0-107.872 52.9121-222.88 163.408-279.376 0-.65625-.192383-1.15234-.192383-1.87207 0-46.8799-39.0244-111.152-54.4004-137.664h.0644531c-1.21582-2.87988-1.95215-6-1.95215-9.34375 0-13.1201 10.5762-23.6641 23.6963-23.6641 1.93555 0 5.08789.400391 6.22363.400391.320312 0 .432617 0 .400391-.0957031 81.6641 13.3438 202.256 105.248 220.128 127.024 18.3359-2.71973 30.7197-3.15137 46.0801-3.15137 6.52832.015625 13.4727.111328 21.7129.111328zM330.687 349.535l-40.9766-34.0322c-9.50391-10.9756-50.7998-45.4395-86.3516-67.8076 21.6484 61.6797 20.7041 81.2158 20.7041 81.2158l3.00781 39.1523-34.8799 17.8076c-88.6719 45.3438-128.528 139.744-128.528 222.4 0 137.664 158.864 247.632 354.16 247.632 195.28 0 350.16-109.968 350.16-247.632-.608398-152.608-145.872-264.624-341.152-264.624 0 0-29.8076-1.15234-60.3994 3.37598zM1024.33 349.807c0 86.7363-33.8867 152.881-118.446 202.513-2.06445-23.0723-8.64062-47.8242-15.793-69.5684 54.6562-37.7764 70.2559-76.5605 70.2559-132.944 0-69.0244-32.1602-119.089-106.912-157.345l-31.8398-15.8076s3.31152-82 8.22363-102.752c-62.4482 45.7764-83.9043 84-83.9043 84l-33.6641-5.18359c-13.3115-1.93555-49.3115-1.96777-49.3115-1.96777-86.9443 0-151.376 20.7197-206.336 63.7441 14.9277.912109-89.1846.879883-91.5049-1.15234 63.5684-77.6318 167.473-126.592 297.841-126.592 7.08789 0 13.0879-.0644531 18.7197-.0644531 13.2803 0 24 .368164 39.8398 2.68848 15.4883-18.7842 102.225-101.504 172.816-113.008-.0322266.0644531.0634766.0644531.367188.0644531.944336 0 3.68066-.335938 5.34473-.335938 11.3438 0 20.4961 9.12012 20.4961 20.4639 0 2.87988-.65625 5.59961-1.68066 8.06348h.0644531c-13.2803 22.8799-34.1279 89.7441-34.1279 130.256 0 .624023-.192383 1.05566-.192383 1.63184 95.5039 48.832 139.744 120.08 139.744 213.296z" glyph-name="bubbles" unicode="&#xe04a;"/><glyph d="M960.016 768.528h-255.601v62c0 52.9443-43.0557 96-96 96h-192.432c-52.9443 0-96-43.0557-96-96v-62h-255.968c-35.1836 0-64-28.8164-64-64v-224.256h-.0322266v-64h.0322266v-382.816c0-35.1836 28.8164-64 64-64h896c35.1836 0 64 28.8164 64 64v671.072c0 35.1836-28.8164 64-64 64h.001zM383.983 830.528c0 17.6641 14.3359 32 32 32h192.432c17.6641 0 32-14.3359 32-32v-62h-256.432zM64.0156 704.528h896v-224.256h-352.368v32.752c0 35.2803-28.7197 64-64 64h-63.7441c-35.2803 0-64-28.7197-64-64v-32.752h-351.888v224.256h.0001zM543.695 351.872h-63.8086v161.152h63.7441zM64.0146 33.4717v382.816h351.872v-64.4004c0-35.2803 28.7197-64 64-64h63.7441c35.2803 0 64 28.7197 64 64v64.4004h352.368v-382.816h-895.984-.0001z" glyph-name="briefcase" unicode="&#xe04b;"/><glyph d="M952.08 958.448l-423.041-114.592c-10.752-2.87988-34.0957-2.84766-44.8154.160156l-412.144 114.208c-36.7842 10.1279-72.416-16.4004-72.416-54.2725v-778.112c0-32.0957 24.3359-62.7842 55.3115-71.4082l412.16-114.224c11.0244-3.05566 25.2168-4.75195 39.9365-4.75195 10.0957 0 25.0078.78418 38.7197 4.52832l423.024 114.592c31.0557 8.40039 55.5039 39.0244 55.5039 71.248v778.128c.015625 37.8398-35.6162 64.4639-72.2402 54.4961zM479.999 3.05664l-408.928 113.056c-3.08789.847656-7.4082 6.49609-7.4082 9.71191v768.032l403.472-111.536c3.9043-1.08789 8.28809-1.93555 12.8643-2.65527v-776.608zM960.335 125.824c0-3.15234-5.18359-8.65527-8.25586-9.50293l-408.08-110.528v775.92c.591797.143555 1.2002.223633 1.79199.383789l414.528 112.128v-768.4h.015625zM641.999 593.697c2.87988 0 5.80957.367188 8.68945 1.18359l223.936 63.0244c17.0244 4.81641 26.9443 22.4648 22.1602 39.4727s-22.5605 26.8799-39.4727 22.1602l-223.936-63.0244c-17.0244-4.81641-26.9443-22.4648-22.1602-39.4727 3.96777-14.1279 16.8154-23.3438 30.7833-23.3438zM642.001 401.696c2.87988 0 5.80957.368164 8.68945 1.18457l223.936 63.0244c17.0244 4.81641 26.9443 22.4648 22.1602 39.4727-4.7841 17.0079-22.5605 26.8799-39.4727 22.1602l-223.936-63.0244c-17.0244-4.81641-26.9443-22.4648-22.1602-39.457 3.96777-14.1279 16.8154-23.3604 30.7833-23.3605zM642.003 209.696c2.87988 0 5.80957.368164 8.68945 1.18457l223.936 63.0244c17.0244 4.81641 26.9443 22.4648 22.1602 39.4727s-22.5605 26.8799-39.4727 22.1602l-223.936-63.0244c-17.0244-4.81641-26.9443-22.4648-22.1602-39.4727 3.96777-14.1123 16.8154-23.3447 30.7833-23.3448zM394.629 656.513l-223.934 63.0254c-16.9121 4.71973-34.6885-5.15234-39.4727-22.1602s5.12012-34.6562 22.1602-39.4727l223.936-63.0244c2.87988-.816406 5.80762-1.18457 8.6875-1.18457 13.9678 0 26.8154 9.21582 30.7832 23.3438 4.78418 16.9922-5.12012 34.6562-22.1602 39.4727zM394.631 464.514l-223.934 63.0254c-16.9121 4.71973-34.6885-5.15234-39.4727-22.1602s5.12012-34.6562 22.1602-39.4727l223.936-63.0244c2.87988-.816406 5.80762-1.18457 8.6875-1.18457 13.9678 0 26.8154 9.21582 30.7832 23.3438 4.78418 16.9922-5.12012 34.6562-22.1602 39.4727zM394.633 272.515l-223.934 63.0254c-16.9121 4.71973-34.6885-5.15234-39.4727-22.1602s5.12012-34.6562 22.1602-39.4727l223.936-63.0244c2.87988-.816406 5.80762-1.18457 8.6875-1.18457 13.9678 0 26.8154 9.21582 30.7832 23.3438 4.78418 17.0078-5.12012 34.6562-22.1602 39.4727z" glyph-name="book-open" unicode="&#xe04c;"/><glyph d="M1015.66 676c-5.96777 8.46387-15.6631 13.502-25.999 13.502h-99.7441l-205.136 174.832c-24.9756 24.9756-65.5195 25.0078-90.4951 0l-201.648-174.832h-82.0957l-51.4082 177.28c-20.1602 69.8076-68.0645 77.3438-87.7129 77.3438h-137.088c-17.5684 0-31.7764-14.2236-31.7764-31.7754s14.2236-31.7754 31.7754-31.7754h137.056c4.33594 0 17.5684 0 26.5928-31.1836l176.848-649.936c3.83984-13.7119 16.3359-23.1836 30.5918-23.1836h431.968c13.4082 0 25.376 8.40039 29.9043 21.0244l152.256 449.68c3.50391 9.74414 2.04785 20.5918-3.8877 29.0234zM639.537 819.07l152.032-129.584h-304.112zM815.025 239.807h-385.487l-101.152 386.128h616.096zM752.002 111.871c-44.1924 0-80-35.8076-80-80s35.8076-80 80-80 80 35.8076 80 80c0 44.1924-35.8076 80-80 80zM464.002 111.871c-44.1924 0-80-35.8076-80-80s35.8076-80 80-80 80 35.8076 80 80c0 44.1924-35.8076 80-80 80z" glyph-name="basket-loaded" unicode="&#xe04d;"/></font>
</defs>
</svg>
